<svg xmlns="http://www.w3.org/2000/svg" id="Ebene_29" data-name="Ebene 29" viewBox="0 0 1112.56 868.06"><defs><style>.cls-1{fill:#00747a;}.cls-2{fill:#fff;}.cls-3{fill:none;stroke:#fff;stroke-miterlimit:10;}</style></defs><polygon class="cls-1" points="562.62 457.37 512.18 410.69 521.73 410.69 528.91 404.38 540.11 386.51 556.31 384.92 567.07 379.96 602.13 362.97 608.92 377.86 621.81 385.34 617.55 391.59 619.83 400.12 610.21 411.27 591.72 449.88 582.3 468.99 562.62 457.37"></polygon><path class="cls-2" d="M2049.66,3184.65l6.65,14.57,12.56,7.29-4.08,6,2.26,8.5-9.49,11-18.51,38.66-9.18,18.62L2010.7,3278l-49.47-45.78h8.46l7.38-6.49,11.11-17.71,16-1.58,10.83-5,34.61-16.77m.49-1.34-.92.44-34.61,16.77-10.66,4.92-15.88,1.56-.49.05-.26.42-11,17.59-7,6.14h-10.64l1.87,1.74,49.47,45.77.08.07.09.06,19.17,11.32.93.54.48-1,9.18-18.63,18.46-38.55,9.4-10.9.35-.4-.14-.51-2.15-8.06,3.82-5.62.61-.89-.93-.54-12.28-7.12-6.52-14.28-.42-.93Z" transform="translate(-1447.78 -2821.01)"></path><polygon class="cls-1" points="509.96 408.65 497.39 397.01 480.58 380.2 481.18 379.74 483.95 375.44 497.15 375.16 497.15 361.89 482.71 342.81 474.1 306.74 473.33 302.13 477.27 300.15 482.8 293.31 486.95 293.31 492.88 283.43 497.81 277.45 506.27 274.72 515.47 261.19 530.71 256.91 538.66 252.92 541.93 245.58 547.95 242.32 552.47 241.87 555.05 246.79 555.87 252.78 581.93 297.84 591.41 323.57 595.93 335.25 594.57 346.4 601.2 360.93 600.73 361.38 566.19 378.11 555.77 382.92 538.9 384.57 527.33 403.04 520.96 408.65 509.96 408.65"></polygon><path class="cls-2" d="M2000,3063.41l2.38,4.55.82,6,26.11,45.15,9.45,25.65,4.47,11.57-1.36,11.17,6.54,14.33-.15.15-34.47,16.69-10.34,4.78-17,1.67-11.67,18.61-6.18,5.44h-10.6l-12.43-11.51-16.4-16.39.22-.17,2.68-4.15,13.42-.28v-13.93L1931,3163.6l-8.59-36-.7-4.22,3.71-1.86,5.44-6.74h4.2l6.08-10.13,4.79-5.8,8.48-2.74,9.2-13.52,15.06-4.23,8.21-4.1,3.26-7.35,5.78-3.13,4.09-.41m.58-1.06-.68.07-4.09.41-.2,0-.18.09-5.78,3.13-.3.16-.13.32-3.12,7-7.81,3.9-15,4.2-.35.1-.21.31-9,13.24-8.15,2.63-.28.09-.19.22-4.79,5.81,0,.05,0,.07-5.78,9.64h-4.12l-.3.37-5.3,6.58-3.52,1.75-.66.33.12.73.7,4.22v.07l8.59,36,0,.21.13.16,14.28,18.86v12.62l-12.44.26-.53,0-.29.44-2.59,4-.09.07-.88.7.79.79,16.4,16.4,12.46,11.53.29.27h11.37l.28-.25,6.18-5.44.11-.1.08-.12,11.4-18.19,16.54-1.63.17,0,.15-.07,10.34-4.77,34.48-16.7.14-.07.11-.1.16-.15.52-.49-.3-.65-6.42-14.08,1.33-10.88,0-.25-.09-.24-4.47-11.57-9.45-25.64,0-.08,0-.07-26-45-.79-5.8,0-.17-.08-.16-2.38-4.54-.31-.6Z" transform="translate(-1447.78 -2821.01)"></path><polygon class="cls-1" points="462.73 386.74 461.21 382.2 457.86 379.76 439.42 372.44 421.4 361.69 374.6 314.61 372.96 290.41 322.9 251.77 316.31 238.85 314.19 222.15 317.1 211.03 322.46 196.83 327.27 190.49 353.08 185.97 359.44 185.67 366.41 177.83 398.54 219.45 432.46 256.65 443.24 258.23 444.76 265.11 464 287.86 465.13 294.39 470.75 296.54 470.98 300.48 472.08 307.1 480.82 343.7 495.11 362.57 495.11 373.16 482.83 373.42 479.64 378.34 472.03 384.38 465.61 386.95 462.73 386.74"></polygon><path class="cls-2" d="M1814.16,2999.62l31.76,41.15,34.07,37.36,10.61,1.55,1.48,6.67,19.22,22.74,1.16,6.68,5.59,2.13.21,3.62,1.1,6.67,8.77,36.74,14.25,18.82v9.93l-12.05.25L1927,3199l-7.49,5.94-6.24,2.5-2.44-.18-1.45-4.37-3.54-2.57-18.5-7.35-17.89-10.68-46.63-46.9-1.64-24.24-50.15-38.71-6.5-12.74-2.1-16.52,2.89-11,5.32-14.09,4.65-6.13,25.61-4.48,6.51-.3,6.71-7.55m0-1.56-.8.9-6.43,7.23-6.08.28h-.13l-25.61,4.49-.39.07-.24.31-4.65,6.12-.09.12,0,.14-5.32,14.08v.05l0,0-2.88,11,0,.19,0,.19,2.1,16.53,0,.17.08.15,6.5,12.75.1.2.18.13,49.8,38.43,1.6,23.8,0,.37.26.27,46.63,46.9.09.08.11.07,17.89,10.68.07,0,.08,0,18.38,7.3,3.17,2.31,1.36,4.07.21.63.66.05,2.43.18h.23l.22-.08,6.24-2.5.14-.06.11-.09,7.49-5.94.13-.1.09-.14,3-4.63,11.53-.24,1,0v-11.23l-.2-.27-14.12-18.66-8.72-36.5-1.08-6.58-.21-3.57,0-.65-.61-.23-5.05-1.92-1.06-6.12,0-.27-.17-.21L1893,3085.89l-1.42-6.42-.15-.68-.69-.09-10.26-1.51-33.79-37.07L1815,2999l-.74-1Z" transform="translate(-1447.78 -2821.01)"></path><polygon class="cls-1" points="532.35 530.61 535.15 521.92 532.47 512.67 524.48 510.39 515.69 505.87 496.22 491.21 493.87 482.07 491.75 475.01 491.82 475 485.71 458.13 481.42 446.06 479.83 435.77 482.41 427 502.92 404.91 561.39 459.02 581.4 470.83 564.08 505.97 554.14 524.25 543.63 533.97 530.72 536.67 532.35 530.61"></polygon><path class="cls-2" d="M1950.72,3226.63l58,53.69.12.11,19.65,11.61-17.11,34.72-9.89,18.18-10.35,9.58-12,2.5,1.42-5.27,2.84-8.82-2.8-9.66-8.26-2.36-8.69-4.48-19.26-14.51-2.31-9-2-6.53h.1L1934,3279l-4.29-12.07-1.55-10.09,2.51-8.55,20.09-21.63m-.06-1.41-.67.73-20.09,21.63-.16.17-.07.23-2.51,8.55-.07.21,0,.22,1.55,10.09v.1l0,.09,4.29,12.06,5.9,16.31h0l.32,1.09,2,6.53,2.3,8.93.09.34.28.21,19.26,14.51.06.05.08,0,8.7,4.48.08,0,.1,0,7.72,2.2,2.57,8.84-2.75,8.52-1.44,5.32-.42,1.57,1.59-.33,12-2.5.27-.06.2-.19,10.35-9.57.12-.11.08-.15,9.9-18.18,17.13-34.76.41-.83-.8-.48-19.56-11.54,0,0-58-53.7-.74-.67Z" transform="translate(-1447.78 -2821.01)"></path><polygon class="cls-1" points="683.68 500.06 679.91 496.06 681.02 485.22 626.75 460.15 617.1 460.15 606.24 464.77 599.15 465.04 589.37 469.94 584.74 470.43 584.07 470.04 593.56 450.77 611.94 412.4 630.52 390.86 656.88 364.49 660.72 365.84 657.01 375.98 655.86 381.1 655.86 387.24 676.39 372.89 679.63 377.87 686.17 378.14 688.66 381.54 688.66 389.18 704.71 407.94 709.42 441.16 696.89 444.22 704.2 459.41 707.38 467.09 708.18 486.31 707.2 491.21 696.78 498.5 690.64 501.06 683.68 500.06"></polygon><path class="cls-2" d="M2104.79,3186.08l3.06,1.07-3.53,9.66-1.18,5.24v7.16l20.89-14.6,3.1,4.76,6.56.27,2.25,3.07v7.66l16.07,18.79,4.63,32.63-12.69,3.1,7.57,15.75,3.14,7.57.79,19.07-.93,4.64-10.2,7.15-6,2.48-6.65-1-3.49-3.71,1.12-11-54.69-25.27h-9.87l-10.87,4.62-7.1.28-9.8,4.9-4.38.46-.12-.07,9.29-18.85,18.35-38.31,18.53-21.49,26.12-26.12m-.26-1.15-.45.44L2078,3211.49l0,0,0,0L2059.38,3233l-.09.1-.06.12-18.34,38.31-9.28,18.84-.41.83.79.47.12.07.29.17.33,0,4.37-.46.18,0,.17-.08,9.61-4.8,6.88-.27h.18l.17-.08,10.69-4.54h9.44l53.84,24.88-1.05,10.25,0,.45.31.34,3.49,3.71.24.25.35.05,6.65.95.27,0,.25-.1,6-2.49.1,0,.09-.06,10.21-7.15.33-.23.07-.39.93-4.65,0-.11v-.12l-.79-19.07V3288l-.07-.16-3.13-7.57v-.05l-7-14.64,11.48-2.81.88-.22-.12-.89L2153,3229l0-.28-.19-.23L2136.94,3210v-7.61l-.19-.27-2.26-3.07-.28-.39-.48,0-6.05-.25-2.81-4.33-.56-.86-.85.59-19.32,13.5v-5.13l1.14-5.06,3.51-9.61.35-.95-1-.33-3.06-1.08-.59-.2Z" transform="translate(-1447.78 -2821.01)"></path><polygon class="cls-1" points="362.76 569.52 347.94 555.55 354.25 554.18 354.52 549.34 363.47 547.85 369.91 546.63 370.88 539.52 363.63 529.66 357.78 528.33 356.89 526.4 365.87 524.28 386.58 522.34 399.51 506.93 429.58 485.19 489.72 475.35 491.89 482.59 494.42 492.41 514.6 507.62 523.72 512.31 530.82 514.33 533.01 521.89 530.4 529.99 528.47 537.14 525.71 537.71 460.66 554.25 432.03 561.06 413.62 572.33 384.96 601.27 382.93 605.32 362.76 569.52"></polygon><path class="cls-2" d="M1937.14,3296.92l2,6.82,2.56,10,20.32,15.3,9.2,4.74,6.92,2,2.08,7.15-2.57,8-1.86,6.87-2.46.51-65.07,16.54-28.7,6.83-18.52,11.34-28.77,29-1.64,3.28-19.75-35.05-14.18-13.36,5.75-1.25.27-4.82,8.56-1.43,6.8-1.29,1-7.66-7.47-10.18-5.79-1.31-.53-1.15,8.38-2,20.85-1.94,13-15.52,29.92-21.64,59.59-9.75m.71-1.13-.87.14-59.59,9.76-.23,0-.2.13-29.91,21.64-.1.07-.08.1-12.76,15.2-20.44,1.91h-.07l-.07,0-8.38,2-1.19.28.51,1.11.53,1.15.21.45.48.11,5.42,1.23,7,9.54-.89,6.55-6.1,1.16-8.53,1.42-.79.13,0,.8-.22,4.06-5,1.09-1.85.4,1.38,1.31,14.07,13.26,19.67,34.92.92,1.64.84-1.69,1.57-3.14,28.57-28.84,18.29-11.19,28.55-6.8,65.08-16.54,2.42-.5.6-.13.16-.59,1.85-6.87,2.56-7.92.09-.29-.08-.29-2.08-7.15-.15-.53-.53-.15-6.83-2-9-4.66-20-15-2.47-9.64-2.06-6.86-.25-.84Z" transform="translate(-1447.78 -2821.01)"></path><polygon class="cls-1" points="619.77 391.97 624.74 384.67 610.51 376.42 603.67 361.42 611.3 354.24 621.15 342.52 629.11 340.13 635.51 336.92 647.95 334.99 653.96 327.34 665.28 324.11 680.75 308.91 698.04 303.24 709.29 294.45 714.98 289.29 719.87 289.81 725.59 288.17 735.52 288.72 752.76 276.95 773.67 270.17 779.22 265.89 785.45 265.17 792.75 272.27 799.85 287.06 787.47 295.63 784.3 295.95 782.99 300.86 784.43 322.61 776.92 325.02 769.49 334.1 758.1 342.31 742.04 346.6 735.09 348.33 718.7 378.65 697.41 396.26 690.71 388.42 690.71 380.87 687.24 376.14 680.77 375.87 676.96 370 657.91 383.31 657.91 381.32 658.95 376.65 663.36 364.59 656.35 362.14 629.05 389.43 621.45 398.25 619.77 391.97"></polygon><path class="cls-2" d="M2233.05,3086.7l7.06,6.88,6.88,14.32-11.92,8.26-3.38.34-1.42,5.32,1.41,21.44-7.28,2.34-7.48,9.14-11.26,8.12-16,4.26-7.16,1.79-16.45,30.42-20.83,17.24-6.26-7.33v-7.52l-3.71-5.06-6.45-.27-4-6.08-18.68,13.05v-1l1-4.61,4.56-12.48-7.78-2.72-27.51,27.51-7,8.13-1.37-5.14,5.14-7.56-14.55-8.43-6.63-14.53,7.37-6.94,9.79-11.64,7.82-2.35,6.41-3.21,12.56-1.95,6-7.67,11.29-3.23,15.47-15.2,17.26-5.67,11.33-8.83,5.54-5,4.77.5,5.73-1.64,10,.56,17.32-11.82,20.92-6.8,5.51-4.24,5.86-.68m.35-1-.47.06-5.85.68-.28,0-.22.17-5.37,4.14-20.76,6.73-.13.05-.12.08-17,11.63-9.69-.53h-.16l-.17,0-5.54,1.59-4.57-.48-.45,0-.33.3-5.52,5-11.15,8.71-17.1,5.61-.22.07-.17.17-15.29,15-11,3.15-.31.09-.2.26-5.79,7.36-12.17,1.9-.15,0-.14.07-6.34,3.17-7.74,2.32-.28.08-.2.23-9.75,11.61-7.33,6.89-.52.49.3.65,6.63,14.53.13.29.28.16,13.62,7.9-4.54,6.67-.25.37.11.45,1.38,5.14.48,1.83,1.24-1.43,7-8.1,27-27.05,6.24,2.18-4.22,11.52,0,.06v.07l-1,4.62,0,.1v3l1.57-1.1,17.84-12.46,3.39,5.21.28.44.51,0,6,.25,3.23,4.4v7.57l.24.28,6.26,7.33.64.74.76-.62,20.83-17.24.15-.12.09-.17,16.24-30,6.73-1.69,16-4.26.18,0,.15-.11,11.27-8.12.11-.07.08-.11,7.29-8.91,7-2.25.74-.24-.05-.77-1.41-21.28,1.2-4.5,2.7-.27.25,0,.22-.15,11.92-8.26.7-.48-.37-.77-6.88-14.32-.07-.16-.13-.13-7.07-6.88-.34-.33Z" transform="translate(-1447.78 -2821.01)"></path><polygon class="cls-1" points="313.14 353.44 313.68 345.77 292.31 339.02 266.49 331.61 257.37 334.81 253.45 297.41 253.45 279.42 263.06 245.77 272.62 222.24 272.98 217.23 271.49 213.51 272.39 203.43 257.94 200.87 256.76 199.14 263.61 198.16 285.73 197.09 296.15 204.49 319.88 197.85 315.17 210.33 312.11 222.01 314.32 239.46 321.29 253.11 370.98 291.46 372.61 315.51 382.5 325.46 351.74 352.08 338.84 346.19 333.81 361 331.74 361.19 313.14 353.44"></polygon><path class="cls-2" d="M1733.36,3018.61l10.47,7.44,23-6.44-4.36,11.55-3.1,11.83,2.23,17.63,7.06,13.83,49.61,38.28,1.61,24,9.65,9.7-30.11,26.06-13.11-6-5.1,15-1.62.15-18.16-7.57.55-7.69-21.75-6.87-26-7.47-8.67,3-3.86-36.77V3100.5l9.6-33.58,9.57-23.55.37-5.21-1.49-3.72.93-10.41-14.69-2.61-.61-.89,6.06-.86,21.9-1.06m.3-1h-.35l-21.9,1.06h-.09l-6.06.86-1.59.23.91,1.32.6.9.24.34.41.08,13.79,2.44-.85,9.5,0,.24.09.22,1.4,3.51-.34,4.82-9.51,23.4,0,.05v.06l-9.6,33.58,0,.13v18.11l3.86,36.77.13,1.26,1.19-.42,8.37-2.94,25.68,7.38,21,6.62-.49,6.91,0,.72.66.28,18.16,7.56.23.1.25,0,1.62-.14.64-.06.21-.62,4.75-14,12.11,5.53.58.27.49-.42,30.1-26.06.81-.7-.75-.76-9.38-9.44-1.6-23.64,0-.45-.35-.27-49.43-38.15-6.88-13.47-2.19-17.27,3-11.58,4.35-11.5.69-1.85-1.9.53L1744,3025l-10.08-7.15-.28-.2Z" transform="translate(-1447.78 -2821.01)"></path><polygon class="cls-1" points="459.47 674.32 434.31 664.95 411.77 645.63 384.51 608.12 384.14 607.47 386.64 602.48 414.9 573.95 432.82 562.98 461.15 556.24 526.17 539.71 527.87 539.35 522.81 558.09 538.55 563.16 532.25 574.5 532.25 579.5 541.09 583.4 532.13 601.05 517.88 621.88 517.62 637.23 511.51 643.33 508.22 636.19 503.28 635.41 502.46 629.08 489.02 628.46 488.28 633.31 495.08 642.72 491.87 646.14 486.54 646.41 480.32 651.33 471.61 646.32 466.44 647.69 464.02 674.54 459.47 674.32"></polygon><path class="cls-2" d="M1975,3361l-5,18.41,15.61,5-6.07,10.93v5.45l8.66,3.82-8.72,17.18-14.3,20.9-.26,15.29-5.46,5.46-3.1-6.74-4.83-.76-.83-6.37-14.3-.66-.85,5.49,6.68,9.25-2.79,3-5.29.27-6.08,4.81-8.6-4.95-5.7,1.52-2.4,26.72-4-.2-25-9.31-22.43-19.22-27.22-37.47-.21-.36,2.35-4.69,28.16-28.43,17.8-10.89,28.25-6.73,65-16.53.88-.18m1.39-1.31-1.59.33-.88.18-65.07,16.54-28.24,6.72-.16,0-.13.08-17.8,10.9-.1.06-.09.09-28.16,28.43-.11.11-.08.14-2.34,4.69-.24.47.26.47.21.36,0,0,0,.05,27.22,37.47.07.09.09.08,22.43,19.22.14.12.16.06,25,9.31.15.06h.15l4,.19,1,.05.08-1,2.34-26,4.63-1.24,8.24,4.74.59.34.53-.42,5.83-4.61,5-.25.41,0,.27-.29,2.79-3,.56-.6-.48-.67-6.44-8.91.65-4.2,12.56.58.72,5.54.1.74.74.12,4.3.68,2.88,6.24.61,1.31,1-1,5.45-5.45.29-.29v-.4l.26-15,14.13-20.65,0-.06,0-.06,8.72-17.18.48-.94-1-.43-8.06-3.55v-4.54l6-10.7.59-1.06-1.16-.38-14.71-4.73,4.73-17.49.42-1.57Z" transform="translate(-1447.78 -2821.01)"></path><polygon class="cls-1" points="410.91 456.09 379.87 446.38 337.04 436.7 334.96 440.26 329.61 441.96 322.22 440.73 317.2 431.23 310.62 426.08 295.53 422.38 275.51 439.38 269.15 441.27 269.99 422.03 267.81 413.87 267.81 399.88 265.21 395.83 259.44 388.74 259.96 382.81 259.15 377.13 260.54 366.28 249.37 351.84 249.13 342.18 256.94 337.13 266.55 333.76 291.7 340.98 311.53 347.24 310.99 354.76 331.42 363.27 335.32 362.92 340.05 348.99 352.09 354.49 383.94 326.92 420.13 363.31 438.51 374.29 456.87 381.57 459.48 383.47 461.22 388.69 465.93 389.02 473.07 386.17 478.97 381.49 495.95 398.47 501.41 403.52 480.58 425.96 477.74 435.63 479.31 445.87 469.92 454.25 449.71 457.44 410.91 456.09"></polygon><path class="cls-2" d="M1831.69,3148.61l35.91,36.11,18.43,11,18.37,7.29,2.43,1.77,1.8,5.38,5.16.37,7.31-2.93,5.61-4.45,16.66,16.67,0,0,5.09,4.71-20.57,22.15-2.91,9.89,1.55,10.09-9.08,8.1-20,3.16-38.69-1.35-31-9.69-43.23-9.77-2.17,3.71-5.05,1.61-7-1.17-5-9.38-6.75-5.28-15.44-3.79-20.14,17.1-5.58,1.66.81-18.62-2.18-8.16v-14.08l-2.68-4.17-5.67-7,.5-5.79-.81-5.66,1.41-11-11.2-14.47-.23-9.22,7.53-4.86,9.4-3.3,25,7.18,19.44,6.14-.54,7.48,20.88,8.7,4.34-.39,4.66-13.71,11.83,5.4,31.74-27.48m0-1.37-.7.61-31.26,27.06-11.24-5.13-1-.46-.36,1-4.44,13.09-3.45.31-20-8.32.48-6.77.06-.79-.75-.24-19.44-6.13-25-7.19-.31-.09-.3.11-9.4,3.3-.11,0-.1.06-7.53,4.86-.48.31,0,.56.23,9.22v.32l.2.26,11,14.15-1.36,10.58,0,.14,0,.13.79,5.55-.49,5.68,0,.4.26.31,5.64,6.94,2.49,3.88V3235l0,.13,2.13,8-.8,18.46-.06,1.4,1.34-.39,5.59-1.66.2-.06.16-.13,19.75-16.78,14.74,3.62,6.41,5,4.85,9.19.23.43.49.09,7,1.17.24,0,.23-.08,5.06-1.61.36-.11.2-.33,1.79-3.08,42.48,9.59,30.94,9.69.12,0h.14l38.68,1.35h.19l20-3.16.29-.05.22-.2,9.08-8.09.4-.36-.08-.54-1.52-9.87,2.78-9.45,20.41-22,.69-.74-.74-.68-5.09-4.7-16.66-16.66-.63-.63-.69.55-5.5,4.36-7,2.78-4.27-.3-1.58-4.75-.1-.3-.26-.19-2.43-1.77-.1-.07-.12,0-18.29-7.26-18.26-10.9-35.82-36-.66-.66Z" transform="translate(-1447.78 -2821.01)"></path><polygon class="cls-1" points="329.57 538.24 298.48 513.14 277.64 505.23 278.08 500.65 287.26 490.64 277.82 470.93 277.01 461.69 268.91 446.84 269.06 443.43 276.51 441.23 296.06 424.62 309.71 427.96 315.6 432.57 320.88 442.59 329.76 444.06 336.33 441.97 338.05 439.03 379.28 448.34 410.56 458.13 449.89 459.49 470.83 456.18 479.95 448.05 483.79 458.82 489.06 473.38 428.77 483.25 398.11 505.42 385.56 520.38 365.64 522.24 353.98 524.99 356.35 530.11 362.43 531.49 368.74 540.07 368.08 544.89 363.12 545.83 352.56 547.59 352.29 552.51 347.31 553.6 347.68 555.3 329.57 538.24"></polygon><path class="cls-2" d="M1744,3246.17l13.29,3.26,5.72,4.48,5.35,10.14,9.24,1.54,6.87-2.19,1.64-2.79,40.86,9.22,31.32,9.81,39.24,1.36h.15l21.18-3.34,8.68-7.74,3.58,10.07,5.07,14-59.81,9.79-30.81,22.28-12.46,14.85-19.71,1.84-12.32,2.9,2.72,5.9,6.14,1.39,6.08,8.27-.58,4.26-4.6.88-11,1.82-.27,4.94-5.1,1.11.13.62-16.93-16-31.18-25.17L1726,3325.9l.39-4,9.29-10.15-9.54-19.92-.82-9.26-8.08-14.82.13-2.91,7.21-2.14,19.44-16.51m-.26-1.09-.39.33L1724,3261.78l-7,2.08-.69.2,0,.71-.13,2.92v.28l.14.24,8,14.63.8,9.06v.18l.08.16,9.25,19.32-8.84,9.64-.23.25,0,.33-.38,4-.07.76.71.27,20.41,7.75,31,25,16.9,15.93,2.35,2.22-.6-2.79,4.12-.9.74-.16,0-.76.23-4.14,10.15-1.69,4.62-.88.71-.14.1-.71.58-4.27,0-.4-.24-.33-6.07-8.26-.22-.3-.37-.08-5.66-1.29-2-4.34,11.07-2.6,19.63-1.84.41,0,.27-.32,12.38-14.75,30.51-22.07,59.58-9.75,1.19-.2-.41-1.13-5.07-14-3.58-10.06-.5-1.4-1.11,1-8.45,7.54-20.81,3.28h0l-39.1-1.36-31.19-9.76h-.08l-40.86-9.23-.72-.16-.37.63-1.44,2.46-6.27,2-8.51-1.42-5.12-9.7-.1-.19-.17-.13-5.72-4.48-.17-.13-.21-.05-13.29-3.26-.5-.12Z" transform="translate(-1447.78 -2821.01)"></path><path class="cls-1" d="M1469.94,3192.21l-7.09-2.18-9.26-.77-.83-5,4.29-7.65-.36-9.41-2.43-4.3.73-13.82-6.1-4.44-.59-6.78,13.39-13.21-1.27-17.94-5.05-3.36.2-6.81,4.83-4.64v-5.74l-1.72-8.73,3.17-3,5.21.77,4.45-.35,5.75-4.27,7.94-.95,13.5-1.66,29.49-14.47,6.77-4.33,45.34.37,128.53,16.8-9.65,33.78v18.39l4,38.17-8.36,5.39.3,11.48,11.06,14.3-1.32,10.29.82,5.71-.57,6.53,4.25,5.22-35.54,18.16-10.27,2.5-9,12-12,6.55-34.21.82-6.11,10.28-12.66,6.87-1.25-8.62c-.64,0-1.93-.1-3.07-.1a11.21,11.21,0,0,0-1.77.09c-.05,1.53-.35,8-.36,8.3v.09l-4,8.65-12.76,4.83Z" transform="translate(-1447.78 -2821.01)"></path><path class="cls-2" d="M1535.1,3049.69l45.19.37,127.9,16.72-9.51,33.29v18.46l4,37.91-8.33,5.38.3,11.93,11,14.26-1.3,10.15.81,5.72-.58,6.68,4,4.9-34.94,17.85-10.39,2.52-9.07,12.1-11.85,6.45-34.36.82-6.19,10.4-11.9,6.45-1.22-8.31s-1.88-.12-3.49-.12c-1.21,0-2.27.07-2.27.31,0,.55-.37,8.55-.37,8.55l-3.91,8.37-12.27,4.65-96.15-93.73-7.25-2.23-8.93-.74-.74-4.47,4.27-7.62-.37-9.67-2.42-4.28.56-10.41.19-3.54-6.14-4.46-.56-6.32,13.39-13.21-1.3-18.41-5-3.35.19-6.32,4.83-4.65v-6l-1.67-8.55L1462,3075l5,.75,4.65-.38,5.76-4.27,7.81-.93,13.58-1.68,29.57-14.5,6.69-4.28m-.28-1-.25.16-6.65,4.24-29.37,14.41-13.41,1.65-7.81.93-.26,0-.21.15-5.54,4.11-4.25.34-4.91-.73-.47-.07-.35.33-2.79,2.6-.41.38.11.55,1.65,8.46v5.43l-4.53,4.35-.29.28v.41l-.19,6.32,0,.56.47.31,4.61,3.07,1.23,17.46-13.06,12.88-.33.33,0,.47.56,6.33,0,.45.36.27,5.7,4.14-.16,3-.55,10.42,0,.29.14.25,2.3,4.07.35,9.14-4.14,7.38-.17.31.06.35.74,4.46.13.77.78.06,8.82.74,6.92,2.13,96,93.56.45.44.6-.23,12.27-4.64.38-.15.18-.37,3.9-8.37.09-.17v-.2c0-.69.28-5.89.35-7.87.27,0,.68,0,1.3,0,.91,0,1.93,0,2.62.07l1.1,7.51.2,1.42,1.26-.69,11.91-6.46.24-.13.14-.23,5.9-9.92,33.81-.81h.24l.21-.11,11.86-6.45.19-.1.13-.18,8.86-11.81,10-2.44.11,0,.11-.05,34.94-17.85,1.1-.57-.78-1-3.74-4.58.55-6.27v-.11l0-.12-.8-5.59,1.29-10,0-.41-.25-.33-10.84-14-.28-11,7.87-5.08.51-.33-.06-.61-4-37.86v-18.27l9.47-33.16.32-1.12-1.15-.15-127.9-16.71h-.12l-45.19-.37Z" transform="translate(-1447.78 -2821.01)"></path><path class="cls-1" d="M1909.21,3643.24l-5.73-1.14-6-4.87-14.06-5.55-7-1.5-15.23-17.83-6.44-.72-6.52.77-8.61-9.35-3.48-.5-1.37,1.37-5.78-2.68-1.31-10.48-7.33-5.55-10-.56-4.21-9.77-9.4-15.66c-.59-.44-4.24-3.13-4.74-3.46a27.63,27.63,0,0,0-5.2-.28h-.75l4-9,15.26,1.09,2-5.9-2.61-11.87-12.14-5.93-.78-7-3.2-4.27.26-6.92-3.82-8.73-.76-10.2,33.38-32.57,13.23-23.56L1858,3468l23,19.71,25.8,9.61,4.35.21-1.73,3.84-7.5,6.43-3.81,5.08,3.54,4.24h17.68l7.7,19.39,6,4.89,2.66,6.13,7.17,10.88-.24,8.29-14,7.43,1.89,6.93,1.64,2.27-.22,2.71,2,3-.39,9.16-1.68,1.12-.76,10.81-14.48.55v9h-4.13l-1.28,13.45-1.25,1.62.29,1.93,4.76,2.1-.89,5.13Z" transform="translate(-1447.78 -2821.01)"></path><path class="cls-2" d="M1830.88,3431.51l26.78,36.87,23.11,19.81,26,9.67,3.7.17-1.39,3.07-7.46,6.4-4.07,5.43,3.94,4.73H1919l7.62,19.19,6,4.9,2.61,6,7.13,10.82-.23,7.85-14.12,7.47,2,7.41,1.59,2.19-.23,2.7,2,3-.37,8.74-1.68,1.11-.74,10.6-14.51.56v8.93h-4.09l-1.3,13.76-1.3,1.67.37,2.42,4.65,2.05-.74,4.27-4.47-.55-5.58-1.12-6-4.83-14.13-5.58-6.88-1.49-15.25-17.85-6.7-.75-6.32.75-8.55-9.3L1836,3602l-1.3,1.3-5.21-2.42-1.3-10.41-7.62-5.77-9.86-.55-4.09-9.49-9.49-15.81s-4.27-3.16-4.83-3.53c-.38-.25-3.51-.33-5.47-.36l3.52-8,15.29,1.09,2.13-6.4-2.68-12.24-12.11-5.92-.77-6.9-3.18-4.24.27-6.86-3.83-8.75-.74-9.88,33.26-32.46,12.89-22.94m-.11-1.85L1830,3431l-12.82,22.82L1784,3486.19l-.34.33,0,.46.74,9.88v.17l.07.16,3.74,8.54-.26,6.63v.36l.21.28,3,4,.73,6.63.07.54.49.25,11.67,5.7,2.53,11.51-1.8,5.4-14.52-1-.7-.05-.29.64-3.52,8-.61,1.38,1.52,0a34.14,34.14,0,0,1,5,.25c.64.45,3.33,2.43,4.55,3.33l9.35,15.58,4.06,9.42.25.57.61,0,9.56.55,7,5.32,1.25,10,.07.55.5.23,5.21,2.42.63.29.5-.49.95-1,3.05.44,8.32,9,.34.38.51-.06,6.21-.73,6.19.69,15,17.55.22.25.33.08,6.8,1.47,13.91,5.49,5.83,4.74.2.15.24.05,5.58,1.12h.07l4.46.56,1,.11.16-.93.75-4.28.13-.77-.72-.32-4.14-1.82-.23-1.45,1-1.34.18-.23,0-.29,1.21-12.85h4.18v-9l13.55-.52.89,0,.07-.9.71-10.11,1.26-.84.43-.28,0-.51.37-8.74v-.33l-.19-.28-1.84-2.68.2-2.35,0-.37-.22-.3-1.48-2-1.76-6.46,13.41-7.1.51-.27,0-.58.23-7.85v-.32l-.17-.26-7.08-10.75-2.59-5.94-.09-.22-.19-.15-5.78-4.74-7.53-18.95-.25-.63h-17.79l-3.13-3.76,3.54-4.72,7.37-6.32.17-.14.1-.21,1.38-3.07.6-1.34-1.47-.07-3.54-.17-25.64-9.54-22.89-19.62-26.71-36.78-.92-1.26Z" transform="translate(-1447.78 -2821.01)"></path><polygon class="cls-1" points="515.7 766.82 515.32 759.19 495.85 759 495.32 755.84 493.93 756.34 489.62 760.28 485.86 760.93 484.6 759.2 483.24 754.2 496.87 746.99 497.16 736.85 489.74 725.58 486.94 719.16 480.99 714.29 472.97 694.1 454.86 694.1 452.98 691.84 455.68 688.24 463.36 681.66 466.51 674.66 466.07 674.64 468.35 649.3 471.32 648.51 480.5 653.8 487.29 648.42 492.8 648.15 497.73 642.89 490.43 632.79 490.77 630.59 500.65 631.05 501.45 637.19 506.82 638.04 509.92 644.76 523.09 657.93 529.22 654.13 535.61 654.13 538.06 647.59 541.97 647.39 543.33 652.84 559.39 651.63 560.22 645.01 576.56 641.47 577.1 624.8 581.23 623.15 589.45 632.46 600.93 625.63 608.47 632.2 609.33 640.25 613.36 640.51 613.63 644.85 634.98 646.29 642.19 640.63 651.31 649.24 664.67 649.76 666.28 661.06 680.2 663.05 694.56 667.66 692.18 695.4 692.72 711.13 689.93 715.81 674.94 714.54 671.45 710.86 669.56 711.02 652.77 720.34 641.54 719.03 625.02 722.74 613.13 722.93 601.76 726.05 595.89 730.63 590.23 737.25 583.89 737.25 577.16 744.16 569.58 749.67 562.92 751.38 539.68 752.31 535.08 753.5 535.08 761.39 530.59 764.24 527.14 763.6 525.68 759.57 519.63 759.57 519.45 766.82 515.7 766.82"></polygon><path class="cls-2" d="M2028.87,3444.75l8.26,9.36,11.52-6.86,7.12,6.21.89,8.27,4,.26.28,4.34,22,1.48,7-5.51,9,8.44,13.13.51,1.61,11.26,14.28,2,13.91,4.47-2.35,27.35L2140,3532l-2.56,4.29-14.48-1.22-3.53-3.72-2.23.19-16.74,9.3-11.16-1.31-16.55,3.72-11.9.19-11.53,3.16-6,4.65-5.58,6.51h-6.32l-6.89,7.07-7.43,5.39-6.51,1.67-23.25.93-5,1.3v8l-4.09,2.6-3-.55-1.49-4.1h-6.88l-.18,7.26H1964l-.37-7.63-19.53-.18-.56-3.35-2,.74-4.28,3.91-3.32.57-1-1.41-1.23-4.51,13.53-7.17.31-10.58-7.51-11.41-2.8-6.45-6-4.87-8.09-20.38h-18.22l-1.48-1.78,2.43-3.24,7.72-6.62,3.5-7.77-.65,0,2.2-24.46,2.43-.65,9.3,5.35,6.93-5.49,5.55-.28,5.35-5.7-7.42-10.27.24-1.55,9,.42.8,6.1,5.47.86,3,6.56,13.51,13.51,6.35-3.93h6.59l2.46-6.56,3.17-.16,1.36,5.46,16.9-1.28.83-6.67,16.37-3.55.55-16.73,3.5-1.4m.28-1.19-.65.27-3.5,1.4-.61.24,0,.65-.52,16-15.61,3.38-.7.15-.08.71-.74,5.86-15.23,1.15-1.16-4.64-.2-.8-.82,0-3.17.16-.66,0-.23.61-2.21,5.91h-6.18l-.24.15-5.68,3.51-12.83-12.83-2.95-6.39-.22-.48-.53-.09-4.74-.75-.69-5.35-.11-.83-.84,0-9-.42-.9,0-.14.89-.24,1.55-.06.4.24.34,6.94,9.6-4.51,4.8-5.15.26-.32,0-.25.2-6.4,5.07-8.71-5-.36-.2-.39.1-2.43.65-.68.18-.06.7-2.2,24.46-.1,1h.23l-2.81,6.23-7.55,6.47-.08.07-.07.09-2.43,3.24-.47.63.5.61,1.49,1.78.3.36h18l7.84,19.75.1.24.2.17,5.76,4.71,2.71,6.23,0,.08,0,.07,7.34,11.14-.29,9.69-13,6.89-.7.38.21.77,1.23,4.52.05.17.11.15,1,1.41.36.5.61-.1,3.32-.58.29-.05.21-.19,4.13-3.77.73-.27.36,2.16.14.83h.84l18.58.17.33,6.69,0,.95h4.71l0-1,.16-6.28h5.2l1.25,3.44.2.53.56.11,3,.56.39.07.33-.21,4.1-2.61.46-.29v-7.77l4.17-1.08,23.14-.93h.1l.11,0,6.5-1.67.19-.05.15-.11,7.44-5.4.07-.05.06-.06,6.59-6.76h6.36l.3-.35,5.51-6.43,5.72-4.47,11.21-3.07,11.78-.19h.1l.1,0,16.38-3.68,11,1.28.32,0,.29-.16,16.54-9.19,1.54-.13,3.21,3.37.26.27.38,0,14.48,1.22.62.05.32-.54,2.56-4.28.15-.26V3532l-.53-15.58,2.34-27.28.07-.8-.76-.24-13.9-4.47-.08,0h-.08l-13.55-1.93-1.5-10.52-.12-.83-.83,0-12.75-.5-8.68-8.18-.63-.59-.67.53-6.72,5.28-20.72-1.4-.22-3.46,0-.88-.88-.05-3.17-.22-.79-7.43-.05-.39-.29-.26-7.12-6.2-.55-.48-.62.38-10.81,6.43-7.71-8.74-.47-.53Z" transform="translate(-1447.78 -2821.01)"></path><path class="cls-1" d="M2399,3369.4l-5.78,2.16-16.89-3.41-6.84-9.44-11.83-.18-5.52,5.12-6.6-4.26-.86-6.56-129.76-15.27-3.64-.73,6.36-18.1,3.53-20.67,5.94-37.52,15.19-41,1.93-17.57-.55-23-9-28.48-1.87-28.45.85-3.21,1.72-.18v1.51l6.08,7.7,23.75,3.15,8.18,6.47,3.58,6.41,11.76,23.7,8.21-.89,6.46-2,14.69-16.92,9-2.81,8.45-6.19,3.16.21,7.71,7.89,7.17,3.94,7.25-2.82,1.4-2.34-6.7-8-4.17-10.41.22-3.72,4.53-.23,3.73,9.52,6.59.17,16.24-9.55,1.94,6.79,8.59.51,1.45-3.63,5.36-1.11,3.1-10.77,2.38-3.36,6.93-2.25,6.23-6.05,4,.67.73,10.22,4-.92,1-2.27-.39-8.54,2.63-.29,1.32,10.2,4.11,1.07,6.3,7.68-12.8,17.13-.34,3.24,4.88,8.71,22.08-12.93-5.56-16.88,2.9-2.11,5.68,18,4.48.19,4.26,15.54,2.62-.44,2.64-6.33-.58-6.81,12.21-3-3.32-15.36,3.37-1.55,2.61,16,3.84-1.47-4.13-14.25,4.93-.7,3.55,14.59,5.27.38.76,8.4,2.21,1.86,7.19,3.11-.67,3.13-2.39,2.73,10.41,10.78.2,4.78-1.87,3.74-.2,4.31-8.62,3.48,1,3.69,6.76-2.56,7.26,12.6,6.23,7v5.08h7l3.31-5.91-1.15-6.71,17.89-8.65,2.13,16.5,1.36,12.8-8.89.58-3.71,3.53-1.07,2.29,11.54,6.78.47,4.42-3.35-.47-8-5.23-4.79-1.19-5.66,8.15,4.89.61,3.63-3.63,6,3.3v3.75l-15.34,8.42-3.4,9.82-11.5.19-17,16.27-4.64,2.68v6.22l2.31,14.56-5.86.76-.18,3.88-10.92,2a41.67,41.67,0,0,0,.84,6.2,22.42,22.42,0,0,1,3.3,1.31l3.9,1.19,1.33-1.48-.19-7.59,5.14.23-.79,10.51-2.41,3.41-5.46,1.7-6,5.07-5.75.19-6.79,1.47-4.93.22-1.86-5.59-4.52.16.35,13.51.75,1.3.2,8.63-6.55.18-.75,12.11-19.92-.19-3.9-1.86-7.29.17-.7,3.3-3.76,3.58-6.65,14.6-.65,1.94-5.77.41Z" transform="translate(-1447.78 -2821.01)"></path><path class="cls-2" d="M2430.17,3103.06l1.3,10.05,4.28,1.11,5.95,7.25-12.64,16.93-.37,3.53,5.2,9.3,22.88-13.39-5.58-16.92,2-1.49,5.58,17.67,4.47.18,4.27,15.62,3.35-.55,2.79-6.7-.56-6.51,12.28-3-3.35-15.44,2.42-1.12,2.6,16,4.83-1.86-4.09-14.14,3.91-.55,3.53,14.5,5.21.37.74,8.19,2.42,2,6.88,3-.56,2.6-2.6,3,10.6,11,.19,4.46-1.86,3.72-.19,4.09-8.74,3.54,1.3,4.65,6.88-2.61,7.07,12.28,6.14,6.88v5.39h7.81l3.53-6.32-1.11-6.51,16.92-8.18,2,15.8,1.31,12.28-8.56.56-3.9,3.71-1.31,2.79,11.72,6.89.37,3.53-2.6-.37-8-5.21-5.21-1.3-6.32,9.11,6,.74,3.54-3.53,5.39,3v3.16l-15.25,8.37-3.35,9.67-11.34.18-17.11,16.37-4.84,2.79v6.51l2.24,14.13-5.77.74-.19,3.91-11,2s.56,7.07,1.12,7.07a21,21,0,0,1,3.35,1.3l4.27,1.31,1.68-1.86-.19-7.26,4.09.19-.74,9.86-2.23,3.16-5.4,1.67-5.95,5-5.58.19-6.88,1.49-4.46.18-1.86-5.58-5.39.19.37,14.13.74,1.3.19,8-6.51.19-.74,12.08-19.35-.18-3.9-1.86-7.81.18-.75,3.54-3.71,3.53-6.7,14.69-.56,1.68-5.2.37-6.51-6.7-5.95,2.24-16.56-3.35-6.88-9.49-12.27-.18-5.38,5-6.09-3.93-.87-6.71L2215,3337.07l-3-.62,6.17-17.55,3.55-20.75,5.94-37.53,15.13-40.8.06-.17,1.93-17.64-.55-23.09-8.95-28.49-1.87-28.31.75-2.8.82-.08v1.12l6.32,8,23.8,3.16,8,6.32,3.53,6.32,11.9,24,8.56-.93,6.69-2,14.7-16.93,8.92-2.79,8.37-6.13,2.79.18,7.63,7.81,7.43,4.1,7.63-3,1.67-2.79-6.88-8.18-4.09-10.23.19-3.16,3.72-.19,3.71,9.49,7.07.18,15.81-9.3,1.86,6.51,9.3.56,1.49-3.72,5.39-1.11,3.16-11,2.23-3.16,6.88-2.23,6.14-6,3.35.56.74,10.41,4.84-1.11,1.11-2.61-.37-8.18,1.67-.19m.87-1.1-1,.11-1.67.19-.93.1,0,.93.36,8-.82,1.93-3.21.73-.66-9.24-.05-.79-.78-.13-3.35-.56-.49-.08-.37.35-6,5.79-6.66,2.16-.31.1-.2.28-2.23,3.16-.09.13-.05.17-3,10.39-4.8,1-.52.11-.2.5-1.22,3.05-7.87-.47-1.67-5.83-.35-1.24-1.12.65-15.56,9.16-6.12-.17-3.47-8.86-.27-.67-.71,0-3.72.19-.9,0,0,.9-.19,3.16v.22l.08.21,4.09,10.23.06.15.11.12,6.42,7.64-1.13,1.88-6.87,2.68-6.9-3.79-7.52-7.7-.27-.28-.38,0-2.79-.19-.37,0-.29.21-8.23,6-8.77,2.74-.27.08-.19.22-14.5,16.7-6.33,1.94-7.77.84-11.59-23.36-3.56-6.37-.09-.17-.16-.12-8-6.33-.21-.17-.28,0-23.4-3.11-5.85-7.41v-1.88l-1.1.11-.82.08-.69.07-.18.67-.75,2.81,0,.16v.16l1.87,28.3v.12l0,.12,8.92,28.36.54,22.88-1.91,17.45,0,.06-15.13,40.79,0,.09,0,.1-5.94,37.53-3.53,20.65-6.14,17.48-.39,1.08,1.13.23,3,.62h.08l129.38,15.22.77,5.94.06.46.39.25,6.08,3.93.66.42.57-.53,5.09-4.72,11.37.18,6.58,9.08.23.31.39.08L2393,3372l.28,0,.27-.1,5.34-2,6,6.23.32.33.47,0,5.2-.38.67,0,.21-.64.54-1.62,6.59-14.47,3.58-3.4.23-.21.06-.31.58-2.75,6.78-.17,3.69,1.76.2.1h.22l19.35.18h1l0-.94.69-11.18,5.6-.16,1,0,0-1-.19-8V3333l-.13-.22-.62-1.09-.34-12.89,3.66-.12,1.62,4.87.24.71.75,0,4.46-.19h.09l.08,0,6.8-1.47,5.49-.18h.34l.27-.22,5.79-4.89,5.2-1.62.33-.1.19-.28,2.24-3.16.15-.22,0-.28.74-9.86.08-1-1-.05-4.09-.19-1.08,0,0,1.07.18,6.85-1,1.09-3.61-1.09a22.8,22.8,0,0,0-3-1.24,47.28,47.28,0,0,1-.71-5.38l10.09-1.88.78-.14,0-.79.15-3.07,4.93-.64,1-.13-.16-1-2.22-14v-5.86l4.34-2.5.1-.06.09-.08,16.83-16.09,10.95-.18.7,0,.23-.66,3.22-9.3,14.91-8.19.52-.28v-4.34l-.52-.29-5.39-3-.66-.37-.53.53-3.19,3.19-3.82-.48,5-7.18,4.38,1.09,7.85,5.11.19.13.22,0,2.6.37,1.27.18-.13-1.28-.38-3.53,0-.5-.43-.26-10.93-6.42.83-1.79,3.51-3.34,8.19-.53,1-.07-.11-1-1.3-12.27-2-15.83-.18-1.38-1.25.61-16.92,8.18-.68.33.13.74,1.06,6.16-3.08,5.5h-6.22v-4.77l-.26-.29-6.07-6.8-7-12.19-.42-.73-.8.3-5.86,2.21-.77-2.73,7.92-3.2.59-.24,0-.64.18-3.88,1.76-3.53.12-.23v-.26l-.19-4.46,0-.38-.26-.28-10-10.31,2-2.28.17-.19,0-.26.56-2.6.17-.8-.75-.33-6.75-2.92-2-1.68-.7-7.78-.08-.84-.85-.06-4.48-.32-3.36-13.8-.21-.88-.9.13-3.91.55-1.14.17.32,1.1,3.84,13.25-2.83,1.09-2.41-14.78-.21-1.29-1.19.55-2.42,1.11-.73.34.17.78,3.14,14.48-11.32,2.75-.84.2.08.86.53,6.26-2.48,6-1.91.32-4-14.75-.19-.71-.73,0-3.77-.15-5.36-17-.42-1.33-1.12.82-2.05,1.49-.59.43.23.69,5.32,16.16-21.29,12.46-4.56-8.13.31-2.94,12.48-16.71.47-.62-.49-.61-5.95-7.25-.21-.25-.32-.09-3.62-.94-1.22-9.37-.12-1Z" transform="translate(-1447.78 -2821.01)"></path><polygon class="cls-1" points="273.64 729.39 256.12 725.12 236.46 706.2 229.69 696.23 228.48 691.73 214.58 693.17 207.18 693.17 204.99 689.39 201.32 685.19 191.47 674.6 173.32 661.09 166.65 656.64 139.99 638.13 132.72 638.32 127.12 633.88 120.94 624.51 118.22 618.3 121.24 610.18 121.78 604.73 120.67 598.59 121.42 593.11 122.45 589.01 127.25 588.41 130.64 587.38 132.45 582.14 137.58 576.1 136.99 569.83 146.37 569.45 147.85 546.13 151.62 544.88 158.61 545.63 165.42 545.63 166.61 541.05 166.42 525.84 159.55 515.99 158.06 486.58 155.51 482.03 151.03 475.3 149.5 469.59 148.77 455.11 146.25 453.6 144.11 452.86 155.84 446.49 161.66 436.7 195.22 435.9 208.11 428.9 216.97 417.08 226.76 414.7 262.91 396.23 263.5 396.97 265.77 400.48 265.77 414.14 267.93 422.25 266.84 447.32 275.01 462.29 275.82 471.48 284.82 490.27 276.11 499.77 275.46 506.59 297.45 514.94 328.18 539.74 361.13 570.79 381.82 607.53 381.65 607.89 368.17 631.88 334.32 664.91 335.18 676.4 338.95 685.02 338.68 692.2 341.98 696.6 342.83 704.2 355.09 710.2 357.36 720.55 356.07 724.41 340.97 723.33 335.95 734.69 328.79 735.76 288.44 736.32 273.64 729.39"></polygon><path class="cls-2" d="M1710.55,3217.87l.34.42,2.15,3.35v13.58l2.16,8.1-1.09,25.13,8.19,15,.8,9.18,8.9,18.56-8.6,9.38-.7,7.36,22.28,8.46,30.66,24.75,32.87,31,20.53,36.44-.06.12-13.43,23.91-34,33.14.89,11.81,3.76,8.59-.28,7.24,3.33,4.44.85,7.74,12.3,6,2.19,10-1.12,3.36-15.07-1.07-5,11.42-6.89,1-40.17.56-14.69-6.88-17.48-4.28-19.53-18.78-6.69-9.86-1.3-4.83-14.32,1.48h-7.07l-2-3.53-3.72-4.28-9.85-10.6-18.23-13.57-6.69-4.47-26.78-18.59-7.25.18-5.4-4.27-6.13-9.3-2.61-5.95,3-8,.56-5.58-1.12-6.14.74-5.39.93-3.72,4.47-.56,3.72-1.11,1.86-5.4,5.2-6.13-.55-5.95,9.29-.38,1.49-23.43,3.35-1.11,6.88.74h7.25l1.3-5-.18-15.44-6.88-9.85-1.49-29.39-2.6-4.65-4.47-6.69-1.48-5.58-.75-14.69-2.79-1.67-1.12-.4,10.86-5.89,5.74-9.66,33.41-.8,13.09-7.12,8.82-11.75,9.67-2.36,35.84-18.31m.26-1.26-.71.37-35.74,18.26-9.56,2.33-.35.08-.21.29-8.69,11.58-12.68,6.89-33.17.8h-.55l-.29.48-5.6,9.43-10.62,5.75-2,1.08,2.14.75,1,.36,2.24,1.34.72,14.16v.11l0,.1,1.49,5.58,0,.16.09.13,4.44,6.67,2.47,4.41,1.48,29.15v.28l.17.24,6.7,9.6.18,15-1.07,4.14h-6.43l-6.82-.74-.22,0-.21.07-3.34,1.11-.64.22-.05.67-1.43,22.53-8.39.34-1.06,0,.1,1,.52,5.53-4.94,5.82-.12.14-.06.18L1578,3408l-3.15.94-4.38.55-.68.08-.17.67-.93,3.72v.1l-.74,5.4,0,.15,0,.16,1.09,6-.53,5.31-2.93,7.88-.15.38.17.37,2.6,6,0,.08,0,.07,6.14,9.3.09.13.12.1,5.39,4.28.29.22h.36l6.93-.18,26.51,18.41,6.69,4.46L1639,3496l9.79,10.53,3.64,4.18,2,3.45.29.5h7.75l13.47-1.4,1.08,4,0,.16.09.14,6.7,9.86,0,.09.08.07,19.53,18.78.19.19.26.06,17.39,4.26,14.6,6.83.21.1h.23l40.17-.56h.13l6.89-1,.54-.08.23-.5,4.76-10.79,14.37,1,.77.06.25-.74,1.12-3.36.08-.26-.06-.27-2.19-10-.1-.47-.44-.21-11.79-5.77-.8-7.19,0-.27-.16-.22-3.12-4.15.26-6.89v-.23l-.09-.21-3.69-8.43-.84-11.18,33.64-32.82.1-.1.07-.12,13.43-23.91.08-.16.24-.47-.26-.47-20.53-36.44-.08-.13-.11-.1-32.86-31,0,0,0,0-30.67-24.75-.12-.1-.15-.06-21.56-8.19.59-6.26,8.37-9.13.46-.5-.29-.61-8.81-18.4-.8-9,0-.21-.1-.18-8.05-14.76,1.08-24.85v-.15l0-.15-2.13-8v-13.74l-.15-.25-2.16-3.35,0-.05,0,0-.34-.42-.52-.63Z" transform="translate(-1447.78 -2821.01)"></path><polygon class="cls-1" points="680.66 661.04 668.09 659.25 666.45 647.78 652.16 647.22 642.31 637.93 634.33 644.2 615.56 642.93 615.29 638.59 611.18 638.32 610.42 631.18 601.15 623.11 589.86 629.84 581.81 620.71 575.1 623.4 574.56 639.81 558.37 643.32 557.57 649.71 544.9 650.67 543.55 645.27 536.61 645.61 534.19 652.08 528.64 652.08 523.39 655.34 512.9 644.84 519.65 638.09 519.92 622.53 533.84 602.18 543.89 582.39 534.29 578.16 534.29 575.03 541.55 561.97 525.3 556.74 530.12 538.88 544.6 535.86 555.78 525.52 564 510.4 579.27 509.43 580.72 521.51 572.51 529.2 566.8 533.02 573.16 542.1 583.54 551.66 616.08 576 624.18 577.4 650.4 580.37 686.26 594.72 695.17 582.03 721.45 595.05 700.13 647.3 694.95 665.63 680.66 661.04"></polygon><path class="cls-2" d="M2026.6,3331l1.37,11.36-8,7.51-6.08,4,6.69,9.55L2031,3373l32.67,24.44,8.22,1.42,26.18,3,36.17,14.47,8.89-12.66,25.48,12.62-21.15,51.82,0,.08-5,17.81-13.8-4.44-12.28-1.75-1.64-11.51-14.53-.57-10-9.46-8.16,6.42-18.14-1.23-.27-4.34-4.13-.27-.74-6.92-9.68-8.43-11.25,6.69-8-9.07-7.34,2.93-.54,16.35-16.16,3.5-.79,6.34-11.84.89-1.35-5.39-7.67.39-2.42,6.45h-5.34l-5,3.12-9.86-9.86,6.54-6.54.27-15.61,13.84-20.23,10.32-20.31-9.78-4.31v-2.68l7.49-13.48-16.38-5.27,4.62-17.1,14.31-3,11.34-10.49,8.14-15,14.51-.92m.88-1.06-.94.06-14.52.92-.55,0-.26.48-8.06,14.81-11,10.19-14.05,2.93-.6.13-.16.59-4.62,17.1-.24.92.9.29,15.22,4.9-6.89,12.41-.13.23v3.59l.6.26,8.81,3.89-9.81,19.31-13.8,20.17-.17.25v.3l-.26,15.2-6.26,6.26-.71.71.71.71,9.86,9.86.56.56.68-.42,4.79-3h5.75l.24-.65,2.19-5.84,6.2-.31,1.15,4.6.2.82.84-.07,11.85-.89.81-.06.1-.82.71-5.63,15.46-3.35.77-.17,0-.78.52-15.69,6.08-2.43,7.54,8.54.55.63.71-.43,10.63-6.32,8.84,7.7.7,6.52.09.84.84,0,3.25.22.21,3.46.06.88.87.06,18.14,1.22.39,0,.3-.24,7.48-5.88,9.41,8.86.27.26.37,0,13.69.53,1.53,10.69.11.74.74.11,12.19,1.74,13.72,4.41,1,.32.28-1,5-17.76,0,0,21.15-51.82.35-.87-.84-.41-25.48-12.61-.76-.39-.5.71-8.43,12-35.44-14.18-.12-.05h-.14l-26.15-3-8-1.37-32.44-24.27-10.31-9.49-6-8.62,5.22-3.48.07,0,.06-.06,8-7.51.37-.35-.06-.5-1.36-11.36-.12-.94Z" transform="translate(-1447.78 -2821.01)"></path><polygon class="cls-1" points="758.63 843.98 743.7 804.81 738.09 790.03 738.09 787.62 744.21 783.55 742.99 769.66 740.2 770.9 736.52 771.1 731.13 770.17 726.48 770.53 723.02 772.69 720.38 761.72 726.87 754.27 729.6 751.54 731.08 746.9 737.63 739.99 735.66 735.23 730.82 735.57 719.88 738.36 712.62 738.55 704.57 734.06 698.45 732.8 696.15 733.51 693.18 733.97 690.52 718.8 694.79 711.66 694.24 695.45 696.66 667.16 702.03 648.05 724.12 593.94 724.23 593.63 737.49 560.36 761.1 522.62 762.8 517.77 766.74 518.57 895.07 533.67 895.85 539.58 903.48 544.51 892.11 545.13 887.3 552.73 878.42 554.11 875.25 550.19 871.82 550.51 866.16 557.69 859.81 555.63 855.22 560.78 852.41 560.59 849.71 563.3 852.07 566.67 854.23 570.26 867.25 574.6 866.87 580.47 872.37 584.13 873.56 589.1 868.78 605.11 874.51 610.32 877.19 609.94 880.04 614.12 890.73 616.6 889.47 624.31 873.72 626.38 866.36 638.04 871.32 648.69 871.13 653.36 865.56 667.28 865.72 669.74 883.59 684.63 883.59 689.92 892.69 703.66 894.19 717.6 893.39 724.38 887.54 724.94 885.84 729.37 886.71 735.51 890.9 738.06 893.63 742.81 900.23 743.94 901.07 747.1 901.07 749.98 897.86 753.01 897.59 754.08 899.19 755.68 899.59 759.7 898.51 762.3 892.14 763.39 891.95 773.14 880.62 773.14 878.08 770.06 872.81 771.76 870.32 775.4 865.93 775 862.8 774.09 853.93 775.97 850.18 772.6 847.98 772.74 847.59 774.5 843.95 774.04 841.46 770.67 833.68 774.47 827.89 755.02 821.86 756.62 818.67 755.12 813.86 755.95 814.03 767.32 816.11 771.85 815.18 775.58 817.19 780.33 819.03 797.79 822.58 799.47 822.99 807.84 818.49 808.59 818.32 814.96 820.89 822.32 828.41 841.88 825.4 846.62 808.6 835.05 800.47 844.6 800.66 852.67 795.97 853.31 791.94 851.3 786.35 853.57 784.19 857.06 790.33 865.88 785.72 867.5 758.63 843.98"></polygon><path class="cls-2" d="M2210.91,3339.35l3.51.72h.06l127.92,15.05.76,5.76,6.53,4.21-10.08.55-4.84,7.63-8.37,1.3-3.16-3.91-3.9.38-5.58,7.06-6.33-2-4.65,5.2-2.79-.18-3.16,3.16,2.61,3.72,2.23,3.72,12.83,4.28-.37,5.76,5.58,3.72,1.11,4.65-4.83,16.18,6.14,5.58,2.6-.37,2.79,4.09,10.41,2.41-1.11,6.88-15.62,2.05-7.63,12.09,5,10.78-.18,4.47-5.58,13.95.18,2.79,17.86,14.87v5.21l9.11,13.76,1.49,13.76-.75,6.33-5.76.55-1.86,4.84.93,6.51,4.27,2.6,2.79,4.84,6.51,1.11.75,2.79v2.61l-3.16,3-.38,1.49,1.68,1.67.37,3.72-.93,2.23-6.51,1.12-.19,9.67h-10.6l-2.6-3.16-5.76,1.86-2.42,3.53-4.09-.37-3.17-.93-8.74,1.86-3.71-3.35-2.79.19L2295,3595l-3-.37-2.61-3.53-7.62,3.72-5.77-19.34-6.32,1.67-3.16-1.49-5.39.93.18,11.9,2.05,4.47-.93,3.72,2,4.83,1.86,17.67,3.54,1.67.37,7.63-4.46.74-.19,6.88,2.6,7.44,7.44,19.34-2.6,4.09-16.74-11.53-8.55,10,.18,7.82-4.09.55-4.09-2-5.95,2.41-2.42,3.91,6,8.55-3.72,1.31-26.78-23.25L2192,3625.64l-5.58-14.69v-2l6.13-4.09-1.3-14.88-3.34,1.49-3.54.18-5.39-.93-4.84.38-3,1.86-2.42-10,6.32-7.25,2.79-2.79,1.49-4.65,6.7-7.06-2.24-5.4-5.2.37-11,2.79-7.06.19-8-4.46-6.32-1.3-2.42.74-2.42.37-2.53-14.5,4.24-7.11-.56-16.35,2.42-28.23,5.36-19,21.66-53.06h0l.52-1.3h0l13.26-33.27,23.6-37.7,1.58-4.5m-.66-1.15-.29.82-1.54,4.39L2184.88,3381l-.05.08,0,.08-13.26,33.27-.34.86h0l-.17.43-21.66,53.07,0,.06,0,.05-5.36,19,0,.1v.09l-2.42,28.23v.12l.55,16.06-4.09,6.86-.19.32.06.36,2.54,14.5.17,1,1-.15,2.41-.37h.07l.07,0,2.18-.66,5.92,1.22,7.86,4.38.24.14h.27l7.07-.19h.11l.11,0,10.89-2.76,4.4-.32,1.7,4.13-6.25,6.59-.15.17-.07.22-1.42,4.42-2.61,2.61,0,0,0,0-6.32,7.26-.34.39.12.5,2.42,10,.32,1.35,1.18-.74,2.77-1.72,4.46-.35,5.27.91.11,0h.11l3.54-.18h.18l.17-.08,2.07-.92,1.13,12.9-5.65,3.76-.44.29v2.77l.06.17L2191,3626l14.88,39.06.09.23.19.17,26.78,23.24.44.38.54-.19,3.72-1.3,1.25-.44-.76-1.08-5.57-8,1.9-3.07,5.23-2.13,3.68,1.85.28.14.31-.05,4.09-.55.88-.12,0-.9-.17-7.43,7.72-9.06,16,11,.86.58.55-.87,2.61-4.09.27-.43-.18-.47-7.44-19.34-2.53-7.24.15-5.87,3.65-.61.88-.14,0-.89-.37-7.63,0-.6-.54-.25-3-1.44-1.8-17.1,0-.15,0-.14-1.92-4.53.85-3.39.08-.34-.14-.32-2-4.27-.17-10.84,4.24-.73,2.88,1.35.33.16.35-.09,5.38-1.43,5.49,18.41.34,1.13,1.06-.52,6.87-3.35,2.11,2.86.26.35.42.05,3,.37.9.12.2-.89.21-.94,1.62-.11,3.41,3.06.37.34.5-.1,8.5-1.81,2.91.86.1,0h.1l4.09.37.58,0,.33-.48,2.23-3.25,4.79-1.55,2.17,2.64.3.36h12.06v-1l.17-8.84,5.7-1,.54-.09.21-.51.93-2.23.1-.24,0-.25-.37-3.72,0-.35-.26-.25-1.27-1.28.16-.65,3-2.78.32-.29V3568l0-.13-.74-2.78-.17-.62-.63-.11-6-1-2.56-4.43-.13-.22-.22-.13-3.87-2.36-.83-5.78,1.55-4,5.15-.5.8-.08.1-.8.74-6.32v-.22l-1.49-13.77,0-.24-.14-.2-8.94-13.51v-5.38l-.36-.3L2314,3490.5l-.14-2.13,5.49-13.74.07-.16v-.17l.19-4.46v-.25l-.1-.22-4.79-10.29,7.08-11.23,15.16-2,.73-.1.12-.73,1.12-6.89.15-.92-.91-.21-10-2.33-2.57-3.77-.35-.51-.61.09-2.14.3-5.32-4.84,4.65-15.57.08-.26-.06-.26-1.12-4.65-.09-.39-.33-.21-5.1-3.4.34-5.19.05-.77-.73-.24-12.48-4.16-2.05-3.41v0l0,0-2.13-3,2.25-2.24,2.34.15.49,0,.32-.36,4.22-4.72,5.7,1.84.66.22.43-.55,5.32-6.73,2.94-.28,2.83,3.49.36.45.57-.09,8.36-1.31.45-.06.25-.39,4.55-7.19,9.57-.52,3.08-.17-2.59-1.67-6.14-4-.69-5.3-.11-.77-.77-.1-127.88-15h0l-3.51-.72-.86-.17Z" transform="translate(-1447.78 -2821.01)"></path><polygon class="cls-1" points="694.25 501.77 697.77 500.3 709.04 492.41 710.23 486.47 709.41 466.65 706.09 458.62 699.83 445.61 711.71 442.7 706.65 407.06 698.74 397.81 720.31 379.97 736.46 350.1 742.55 348.58 758.99 344.19 770.91 335.6 778.12 326.79 784.57 324.71 784.91 329.89 793.85 358.33 794.39 380.86 792.51 398.05 777.32 439.01 771.36 476.72 767.86 497.2 761.46 515.41 694.25 501.77"></polygon><path class="cls-2" d="M2231.89,3146.4l.3,4.59,8.94,28.43.53,22.46-1.86,17.06-15.17,40.9-6,37.81-3.5,20.48-6.23,17.71-65.19-13.22,2.07-.87,11.48-8,1.24-6.2-.83-20-3.36-8.11-6-12.48,11.71-2.87-5.14-36.23-7.67-9,21.25-17.58,16.09-29.76,5.88-1.47,16.53-4.41L2219,3157l7.16-8.75,5.7-1.83m.91-1.35-1.22.39-5.7,1.83-.28.1-.18.22-7.08,8.65-11.79,8.5-16.36,4.37-5.86,1.46-.43.11-.21.39-16,29.59-21.11,17.45-.78.65.66.77,7.49,8.76,5,35.05-10.83,2.64-1.2.3.54,1.11,6,12.45,3.28,7.92.82,19.68-1.14,5.69-11.06,7.74-2,.82-3,1.26,3.19.65,65.19,13.22.86.17.29-.82,6.22-17.71,0-.08,0-.08,3.5-20.48,6-37.72,15.13-40.81.05-.12v-.12l1.87-17.06v-.13l-.53-22.46v-.14l0-.13-8.9-28.32-.29-4.48-.09-1.28Z" transform="translate(-1447.78 -2821.01)"></path><polygon class="cls-1" points="694.51 579.42 685.52 592.22 650.9 578.37 624.51 575.38 616.91 574.07 584.91 550.13 574.71 540.74 569.68 533.56 573.79 530.82 582.87 522.29 581.07 507.26 565.16 508.27 565.89 506.94 583.16 471.88 584.28 472.53 589.95 471.94 599.68 467.07 606.69 466.8 617.52 462.2 626.3 462.2 678.84 486.47 677.78 496.78 682.68 501.99 690.58 503.12 760.78 517.36 759.24 521.73 735.65 559.42 722.22 593.14 694.51 579.42"></polygon><path class="cls-2" d="M2074,3283.71l52.11,24.07-1,10.19,5.18,5.5,8.08,1.15,69.6,14.12-1.32,3.78-23.5,37.53-.07.12-13.27,33.29-27.61-13.67-9,12.82-34.31-13.72-26.45-3-7.46-1.29-31.9-23.86-10.13-9.32-4.7-6.72,3.69-2.46,9.33-8.75-1.89-15.75-15.48,1,.29-.54,17.05-34.6.79.47,5.93-.63,9.71-4.85,7-.27,10.81-4.6H2074m.22-1h-9l-.19.08-10.64,4.52-6.82.27h-.22l-.19.1-9.55,4.78-5.42.57-.5-.3-.93-.55-.48,1-17,34.59-.28.51-.87,1.59,1.81-.12,14.54-.92,1.71,14.31-8.9,8.34-3.62,2.42-.85.56.59.84,4.7,6.72.07.09.08.07,10.12,9.33,0,0,0,0,31.9,23.86.19.15.24,0,7.46,1.29h.05l26.33,3,34.18,13.67.74.3.45-.65,8.51-12.12,26.85,13.29,1,.48.4-1,13.23-33.21,0,0,23.49-37.53.06-.1,0-.1,1.33-3.78.38-1.08-1.13-.23-69.6-14.12h-.06l-7.73-1.1-4.62-4.92,1-9.73.08-.71-.65-.3-52.11-24.07-.2-.09Z" transform="translate(-1447.78 -2821.01)"></path><polygon class="cls-1" points="286.34 195.01 263.42 196.12 255.48 197.26 254.82 196.28 239.45 197.19 237.59 198.68 232.35 198.88 222.09 186.94 214.4 186.19 212.41 182.42 210.34 179.41 209.54 175.21 211.41 172.22 210.71 165.88 199.57 155.28 192.86 152.67 189.7 149.32 188.23 141.56 166.62 125.92 166.23 119.58 168.1 116.39 168.46 109.14 162.29 103.91 163.12 99.11 172.26 94.16 189.86 80.63 246.64 48.6 282.95 32.95 338.4 12.12 349.38 8.39 363.19 0.71 376.19 33.51 380.49 37.8 385.9 57.22 389.72 64.31 397.94 69.54 399.81 75.14 402.43 77.24 412.1 81.22 413.48 89.28 405.83 104.76 404.95 132.91 397.49 144.94 390.88 150.24 381.57 157.08 369.04 171.79 358.48 183.67 352.95 183.92 326.13 188.61 320.94 195.43 296.54 202.26 286.34 195.01"></polygon><path class="cls-2" d="M1810.71,2822.44l12.83,32.35,4.28,4.28,5.39,19.34,3.91,7.26,8.18,5.2,1.86,5.58,2.79,2.23,9.48,3.91,1.31,7.62-7.63,15.44-.88,28.12-7.34,11.85-6.55,5.23-9.33,6.87-12.58,14.76-10.4,11.7-5.33.25-27.07,4.73-5.21,6.84-24,6.72-10.14-7.2-23.1,1.11-7.68,1.1-.64-1-15.81.93-1.86,1.49-4.83.19-10.23-11.9-7.63-.75-1.86-3.53-2-3-.75-3.9,1.86-3-.74-6.69-11.35-10.79-6.69-2.6-3-3.16-1.48-7.82-21.58-15.62-.37-5.95,1.86-3.16.37-7.62-6.13-5.21.74-4.28,8.93-4.83,17.66-13.58,56.73-32,36.26-15.62,55.42-20.83,11-3.72,13.39-7.43m.51-1.43-1,.55-13.31,7.4-10.88,3.69-55.45,20.84-36.31,15.64,0,0,0,0-56.72,32-.06,0-.05,0-17.61,13.53-8.86,4.79-.42.23-.08.48-.75,4.28-.1.56.44.37,5.76,4.89-.33,6.89-1.74,2.95-.15.26v.3l.38,6,0,.47.38.27,21.25,15.39,1.41,7.42.06.29.2.21,3,3.16.16.17.21.08,6.51,2.53,10.94,10.4.66,6-1.67,2.68-.21.33.07.38.74,3.91,0,.21.12.17,2,2.93,1.83,3.48.25.47.54.06,7.22.7,10,11.6.31.37.48,0,4.84-.19h.33l.26-.21,1.61-1.29,14.92-.87.33.48.35.51.62-.08,7.63-1.09,22.7-1.1,9.86,7,.39.28.46-.13,24-6.71.33-.09.2-.27,5-6.53,26.62-4.66,5.26-.24.42,0,.28-.31,10.41-11.71,12.51-14.69,9.24-6.79,6.58-5.26.14-.11.09-.15,7.34-11.84.14-.23v-.27l.87-27.9,7.53-15.24.15-.29-.06-.32-1.3-7.63-.09-.55-.52-.21-9.35-3.85-2.44-1.95-1.77-5.3-.11-.34-.3-.19-8-5.07-3.72-6.92-5.37-19.24-.07-.25-.18-.19-4.14-4.13-12.75-32.16-.42-1.06Z" transform="translate(-1447.78 -2821.01)"></path><path class="cls-1" d="M1920.49,3116.1l-5.76-2.19-1-5.94-19.26-22.79-1.73-7.76-11.45-1.68-33.32-36.55-32.36-41.91,2.78-3.12,12.4-14.57,9.12-6.7,7-5.56,7.61-12.28,32.75,4.93,1.1,4.95,57.42-2.59,32.73-1.67,33.31,2.24,22.48,17.46,19.4-.92,7.12,1.31,5.93,1.67,23.34-.37,7.4-7.59,5.79-1.12,23.66-19.93,12.53-.2,1.68,13.81,3.76.31,4.81-7,6.23-.57,9.49-7.25,30.89-1.9,4.56,22.18,4.28,15.85v10.07l-9.92,4.12-3.47,16.41.42,9.35h-.54c-13.91-.4-21.65-.6-22.39-.6-1.67,0-21-3.52-28.29-4.87l-.13,0-16.82,1.38-44.44,12.47-50.67,9.81-23.94,20.6-3.48-6.63-6.31.63-7,3.78-3.24,7.31-7.13,3.56-15.76,4.44-9.23,13.57-8.36,2.69-5.41,6.56-5.41,9h-4l-5.86,7.25-3,1.48Z" transform="translate(-1447.78 -2821.01)"></path><path class="cls-2" d="M2195.85,2951.13l4.47,21.76,4.27,15.8v9.67l-9.85,4.09-3.54,16.74.39,8.88c-11-.31-21.51-.6-22.4-.6-1.44,0-18.06-3-28.2-4.86l-.2,0-16.88,1.38-44.54,12.49-50.76,9.83-23.56,20.27-3.34-6.38-6.75.68-7.23,3.92-3.25,7.29-7,3.49-15.84,4.44-9.24,13.59-8.33,2.68-5.51,6.67-5.3,8.85h-3.94l-5.94,7.35-2.17,1.09-.27-4.47-5.8-2.21-1-5.79-19.27-22.8-1.77-8-11.62-1.7-33.2-36.42-32.08-41.54,2.5-2.82L1831.1,2980l9.07-6.67,7-5.62,7.48-12.08,32.09,4.84,1.12,5,57.83-2.61,32.73-1.67,33.11,2.23,22.5,17.48,19.53-.93,7.06,1.3,5.95,1.68,23.62-.37,7.44-7.63,5.77-1.11,23.61-19.9,11.91-.19,1.67,13.76,4.46.37,4.84-7.06,6.13-.56,9.49-7.25,30.31-1.86m.81-1.05-.87.05-30.31,1.86-.31,0-.24.18-9.25,7.08-5.85.53-.47,0-.27.39-4.5,6.59-3.08-.26-1.57-12.95-.11-.89h-.9l-11.9.19h-.36l-.27.23L2103,2972.88l-5.51,1.07-.31.06-.22.22-7.15,7.33-23.06.37-5.81-1.64h-.09l-7.06-1.3-.12,0h-.11l-19.16.92-22.21-17.26-.24-.19-.31,0-33.1-2.23h-.12l-32.73,1.67-57,2.57-.93-4.2-.15-.67-.68-.1-32.09-4.83-.65-.1-.35.56-7.39,11.92-6.89,5.52-9,6.65-.09.07-.07.08L1818,2993.84l-2.49,2.8-.55.62.51.66,32.08,41.55,0,0,0,0,33.2,36.42.25.26.35.05,10.93,1.6,1.63,7.31,0,.24.16.19,19.09,22.59,1,5.52.1.56.53.2,5.2,2,.23,3.83.09,1.51,1.35-.67,2.18-1.09.19-.1.14-.17,5.64-7h4l.29-.49,5.27-8.78,5.28-6.39,8-2.59.32-.11.2-.28,9-13.28,15.49-4.35.1,0,.08,0,7-3.49.32-.16.15-.32,3.1-7,6.76-3.66,5.88-.58,3,5.77.59,1.12,1-.82,23.36-20.1,50.5-9.78h.08l44.45-12.47,16.65-1.37.07,0c7.32,1.34,26.67,4.83,28.36,4.87.53,0,4.82.1,22.39.6l1.08,0,0-1.08-.38-8.75,3.4-16.09,9.37-3.89.61-.26v-10.47l0-.13-4.27-15.78-4.46-21.72-.17-.85Z" transform="translate(-1447.78 -2821.01)"></path><path class="cls-1" d="M2044.45,3167.08l1.35-11.08-4.69-12.14-9.54-25.89-26-44.86-.45-3.3,24.59-21.16,50.22-9.72,44.34-12.44,16.35-1.35h.06c12.21,2.25,27,4.86,28.45,4.86.92,0,12.78.33,22.56.61h.46l.61,13.83,31.79,34.21.73,6.92-4.86,3.75-20.84,6.77-16.91,11.54-9.59-.53-5.67,1.62-5.4-.57-6.27,5.69-10.95,8.55-17.41,5.71L2112,3143.29l-11.45,3.27-5.92,7.54-12,1.86-6.53,3.26-8.38,2.52-10.17,12.1-7,6.62Z" transform="translate(-1447.78 -2821.01)"></path><path class="cls-2" d="M2140.64,3025.65c4.88.89,26.63,4.86,28.54,4.86.87,0,11.46.3,22.55.61l.59,13.55,31.8,34.22.69,6.48-4.57,3.52-20.83,6.76-16.84,11.49-9.49-.53-5.66,1.62-5.54-.58-6.42,5.84L2144.6,3122l-17.44,5.73-15.43,15.15-11.48,3.29-5.9,7.5-11.84,1.85-6.6,3.3-8.45,2.53-10.26,12.21-6.49,6.1L2045,3167l1.35-11.06-4.74-12.26L2032,3117.8,2006.1,3073l-.4-2.94,24.29-20.89,50.08-9.7,44.38-12.45,16.19-1.32m.05-1h-.13l-16.19,1.33h-.1l-.09,0-44.34,12.44-50,9.68-.26,0-.21.18-24.28,20.89-.41.35.07.54.4,2.94,0,.2.09.17,25.9,44.78,9.51,25.79,4.65,12-1.32,10.82,0,.28.12.26,5.75,12.61.58,1.27,1-1,6.48-6.11,0,0,0,0,10.08-12,8.15-2.45.09,0,.07,0,6.46-3.23,11.69-1.82.39-.06.24-.31,5.7-7.25,11.18-3.19.24-.07.18-.18,15.27-15,17.21-5.65.17,0,.13-.11,10.86-8.47,0,0,0,0,6.1-5.54,5.09.53.19,0,.18,0,5.5-1.57,9.33.52.34,0,.28-.19,16.71-11.41,20.7-6.72.16-.05.14-.11,4.57-3.52.44-.34-.06-.56-.69-6.48,0-.33-.23-.24-31.55-33.95-.58-13.18,0-.93-.93,0c-14.24-.4-21.83-.61-22.57-.61-1.42,0-16.17-2.61-28.36-4.85l-.13,0Z" transform="translate(-1447.78 -2821.01)"></path><path class="cls-3" d="M2545.47,3220.22l1.31-2.79,3.9-3.71,8.56-.56-1.31-12.28-2-15.8-16.92,8.18,1.11,6.51-3.53,6.32h-7.81v-5.39l-6.14-6.88-7.07-12.28-6.88,2.61-1.3-4.65,8.74-3.54.19-4.09,1.86-3.72-.19-4.46-10.6-11,2.6-3,.56-2.6-6.88-3-2.42-2-.74-8.19-5.21-.37-3.53-14.5-3.91.55,4.09,14.14-4.83,1.86-2.6-16-2.42,1.12,3.35,15.44-12.28,3,.56,6.51-2.79,6.7-3.35.55-4.27-15.62-4.47-.18-5.58-17.67-2,1.49,5.58,16.92-22.88,13.39-5.2-9.3.37-3.53,12.64-16.93-5.95-7.25-4.27-1.11-1.31-10.05-1.67.19.37,8.18-1.11,2.61-4.84,1.11-.74-10.41-3.35-.56-6.14,6-6.88,2.23-2.23,3.16-3.16,11-5.39,1.11-1.49,3.72-9.3-.56-1.86-6.51-15.81,9.3-7.07-.18-3.71-9.49-3.72.19-.19,3.16,4.09,10.23,6.88,8.18-1.67,2.79-7.63,3-7.43-4.1-7.63-7.81-2.79-.18-8.37,6.13-8.92,2.79-14.7,16.93-6.69,2-8.56.93-11.9-24-3.53-6.32-8-6.32-23.8-3.16-6.32-8,.16-4.2,11.92-8.26-6.88-14.32-7.06-6.88-5.33.62-2.91-2-.69-6.48-31.8-34.22-.59-13.55-.14-3-.39-8.88,3.54-16.74,9.85-4.09v-9.67l-4.27-15.8-4.47-21.76-30.31,1.86-9.49,7.25-6.13.56-4.84,7.06-4.46-.37-1.67-13.76-11.91.19-23.61,19.9-5.77,1.11-7.44,7.63-23.62.37-5.95-1.68-7.06-1.3-19.53.93-22.5-17.48-33.11-2.23-32.73,1.67-55.1,2.48-2.87-.5-1-4.39-32.07-4.83-2.47-1.83.88-28.12,7.63-15.44-1.31-7.62-9.48-3.91-2.79-2.23-1.86-5.58-8.18-5.2-3.91-7.26-5.39-19.34-4.28-4.28-12.83-32.35-13.39,7.43-11,3.72-55.42,20.83L1694.67,2870l-56.73,32-17.66,13.58-8.93,4.83-.74,4.28,6.13,5.21-.37,7.62-1.86,3.16.37,5.95,21.58,15.62,1.48,7.82,3,3.16,6.69,2.6,11.35,10.79.74,6.69-1.86,3,.75,3.9,2,3,1.86,3.53,7.63.75,10.23,11.9,4.83-.19,1.86-1.49,15.76-.92,2.6,3.75.61.89.29.06,14.27,14.95.69,1.73-.37,5.21-9.13,22.46-3.57,1-127.9-16.72-45.19-.37-6.69,4.28-29.57,14.5-13.58,1.68-7.81.93-5.76,4.27-4.65.38-5-.75-2.79,2.61,1.67,8.55v6l-4.83,4.65-.19,6.32,5,3.35,1.3,18.41L1448.81,3138l.56,6.32,6.14,4.46-.19,3.54-.56,10.41,2.42,4.28.37,9.67-4.27,7.62.74,4.47,8.93.74,7.25,2.23,96.15,93.73,12.27-4.65,3.91-8.37s.37-8,.37-8.55,5.76-.19,5.76-.19l1.22,8.31,3.24,1.71,1.51.63,2.4,1.44.75,14.69,1.48,5.58,4.47,6.69,2.6,4.65,1.49,29.39,6.88,9.85.18,15.44-1.3,5h-7.25l-6.88-.74-3.35,1.11-1.49,23.43-9.29.38.55,5.95-5.2,6.13-1.86,5.4-3.72,1.11-4.47.56-.93,3.72-.74,5.39,1.12,6.14-.56,5.58-3,8,2.61,5.95,6.13,9.3,5.4,4.27,7.25-.18,26.78,18.59,6.69,4.47,18.23,13.57,9.85,10.6,3.72,4.28,2,3.53h7.07l14.32-1.48,1.3,4.83,6.69,9.86,19.53,18.78,17.48,4.28,14.69,6.88,40.17-.56,2.48-.37v0l7.85-.94c2,0,5.09.11,5.47.36.56.37,4.83,3.53,4.83,3.53l9.49,15.81,4.09,9.49,9.86.55,7.62,5.77,1.3,10.41,5.21,2.42,1.3-1.3,3.91.56,8.55,9.3,6.32-.75,6.7.75,15.25,17.85,6.88,1.49,14.13,5.58,6,4.83,5.58,1.12,4.47.55.74-4.27-4.65-2.05-.37-2.42,1.3-1.67,1.3-13.76h4.09v-8.93l14.51-.56.74-10.6,1.68-1.11.37-8.74-2-3,.23-2.7,0,0,2.24-2.09,3.32-.57,4.28-3.91,2-.74.56,3.35,19.53.18.37,7.63h2.79l.18-7.26h6.88l1.49,4.1,3,.55,4.09-2.6v-8l5-1.3,23.25-.93,6.51-1.67,7.43-5.39,6.89-7.07h6.32l5.58-6.51,6-4.65,11.53-3.16,11.9-.19,16.55-3.72,11.16,1.31,16.74-9.3,2.23-.19,3.53,3.72,13,1.1,2.84,3.74,2.53,14.5,2.42-.37,2.42-.74,6.32,1.3,8,4.46,7.06-.19,11-2.79,5.2-.37,2.24,5.4-6.7,7.06-1.49,4.65-2.79,2.79-6.32,7.25,2.42,10,3-1.86,4.84-.38,5.39.93,3.54-.18,3.34-1.49,1.3,14.88-6.13,4.09v2l5.58,14.69,14.87,39.05,26.78,23.25,3.72-1.31-6-8.55,2.42-3.91,5.95-2.41,4.09,2,4.09-.55-.18-7.82,8.55-10,16.74,11.53,2.6-4.09-7.44-19.34-2.6-7.44.19-6.88,4.46-.74-.37-7.63-3.54-1.67-1.86-17.67-2-4.83.93-3.72-2.05-4.47-.18-11.9,5.39-.93,3.16,1.49,6.32-1.67,5.77,19.34,7.62-3.72,2.61,3.53,3,.37.38-1.67,2.79-.19,3.71,3.35,8.75-1.86,3.16.93,4.09.37,2.42-3.53,5.76-1.86,2.6,3.16h10.6l.19-9.67,6.51-1.12.93-2.23-.37-3.72-1.68-1.67.38-1.49,3.16-3v-2.61l-.75-2.79-6.51-1.11-2.79-4.84-4.27-2.6-.93-6.51,1.86-4.84,5.76-.55.75-6.33-1.49-13.76-9.11-13.76v-5.21L2313,3491l-.18-2.79,5.58-13.95.18-4.47-5-10.78,7.63-12.09,15.62-2.05,1.11-6.88-10.41-2.41-2.79-4.09-2.6.37-6.14-5.58,4.83-16.18-1.11-4.65-5.58-3.72.37-5.76-12.83-4.28-2.23-3.72-2.61-3.72,3.16-3.16,2.79.18,4.65-5.2,6.33,2,5.58-7.06,3.9-.38,3.16,3.91,8.37-1.3,4.84-7.63,10.08-.55,2.39-2.08,5.38-5,12.27.18,6.88,9.49,16.56,3.35,5.95-2.24,6.51,6.7,5.2-.37.56-1.68,6.7-14.69,3.71-3.53.75-3.54,7.81-.18,3.9,1.86,19.35.18.74-12.08,6.51-.19-.19-8-.74-1.3-.37-14.13,5.39-.19,1.86,5.58,4.46-.18,6.88-1.49,5.58-.19,5.95-5,5.4-1.67,2.23-3.16.74-9.86-4.09-.19.19,7.26-1.68,1.86-4.27-1.31a21,21,0,0,0-3.35-1.3c-.56,0-1.12-7.07-1.12-7.07l11-2,.19-3.91,5.77-.74-2.24-14.13v-6.51l4.84-2.79,17.11-16.37,11.34-.18,3.35-9.67,15.25-8.37v-3.16l-5.39-3-3.54,3.53-6-.74,6.32-9.11,5.21,1.3,8,5.21,2.6.37-.37-3.53Z" transform="translate(-1447.78 -2821.01)"></path></svg>