<?xml version="1.0" encoding="UTF-8"?><svg id="Ebene_2" xmlns="http://www.w3.org/2000/svg" viewBox="0 0 389.83 355.31"><defs><style>.cls-1{stroke:#002c50;stroke-miterlimit:10;}.cls-1,.cls-2{fill:#1e345d;}</style></defs><g id="Ebene_1-2"><g><path class="cls-2" d="M244.26,155.08c0-1.58,0-3.16,.02-4.74,0-.42-.21-.62-.51-.83-3.17-2.19-6.34-4.38-9.5-6.59-.37-.26-.73-.38-1.19-.38-1.42,.02-2.84-.03-4.26,.02-.78,.03-1.44-.18-2.11-.58-4.17-2.51-8.36-4.99-12.53-7.5-.48-.29-.94-.43-1.5-.43-7.63,.01-15.26,0-22.9,.01-.99,0-2.03-.18-2.95,.08-.92,.26-1.72,.95-2.57,1.46-3.61,2.15-7.22,4.28-10.82,6.45-.6,.36-1.2,.51-1.9,.5-1.42-.03-2.84,0-4.26-.02-.48,0-.87,.1-1.27,.38-2.43,1.71-4.88,3.39-7.32,5.09-.9,.62-1.8,1.25-2.66,1.86v5.54h88.16c.03-.13,.06-.23,.06-.33Zm-44.12-.4c-2.14-4.32-4.2-8.47-6.31-12.71h12.63c-2.11,4.25-4.18,8.4-6.32,12.71Z"/><path class="cls-2" d="M289.99,27.72h-.17c-1.42,6.05-2.84,12.09-4.31,18.3,0,0,0,0-.01,0v2.04h-.01v8.01s-.01,0-.02,0c-.24-.29-.46-.58-.66-.88-.6-1.03-1.19-2.06-1.79-3.09h0s0,.03,0,.03c-6.25-10.81-12.5-21.62-18.76-32.44-3.68-6.37-7.37-12.74-11.04-19.12-.24-.42-.5-.66-1-.59-.16,.02-.32,0-.48,0h-103.18c-.16,0-.32,.02-.48,0-.49-.06-.76,.15-1.01,.58-4.75,8.25-9.53,16.5-14.29,24.74-5.84,10.1-11.68,20.2-17.52,30.3-.1,.17-.22,.33-.33,.49-.04-.02-.07-.03-.11-.05v-10.04s0,0-.01,0c-1.46-6.21-2.88-12.26-4.31-18.3h-.17c-1.41,6.07-4.29,18.46-4.29,18.46,0,0,.02,18.19,.02,26.97v9.12h5.84v73.13h38.97c.02-3.36,0-6.66,.01-9.98h5.16v2.14c.36-.25,.58-.39,.8-.54,2.86-1.98,5.72-3.96,8.57-5.96,.42-.29,.83-.43,1.33-.41,1.5,.06,3,.08,4.49,.15,.56,.03,1.03-.13,1.5-.42,4.29-2.57,8.59-5.12,12.88-7.69,.45-.27,.91-.39,1.43-.39,.47,0,.94,0,1.42,0v-4.24h0c-.01-1.98-.03-6.89,.01-9.65,.08-5.13,2.3-9.26,6.14-12.58,1.51-1.3,3.17-2.36,4.98-3.21,.29-.14,.54-.26,.9-.09,3.7,1.76,6.81,4.22,8.98,7.75,1.6,2.6,2.32,5.44,2.33,8.48,0,3.1,0,6.2,0,9.3h0v4.23c.4,0,.8,0,1.2,0,.7,0,1.29,.17,1.89,.52,4.22,2.54,8.45,5.05,12.68,7.58,.45,.27,.9,.42,1.43,.4,1.52-.07,3.05-.08,4.58-.15,.48-.02,.87,.12,1.26,.39,2.85,1.99,5.71,3.97,8.58,5.95,.23,.16,.47,.3,.8,.52,.04-.8,.06-1.45,.09-2.11h5.08v.9c0,2.76,0,5.52,0,8.28,0,.28,.03,.56,.04,.83,.04,0,.12,0,.19,.01h35.21c1.77-.02,3.06-.04,3.62-.07V82.27h5.81v-20.61h0c0-7.79,.01-15.48,.01-15.48,0,0-2.89-12.39-4.29-18.46Zm-28.51,18.96c1.57-1.93,3.1-3.82,4.7-5.78,.76,.93,1.5,1.85,2.25,2.77h0l2.46,3.02c.14,.17,.28,.34,.42,.52l.07,.09h-1.68v11.82h-7.06v-11.82h-1.68l.51-.62Zm-21.74,0c1.57-1.93,3.1-3.82,4.7-5.78,.76,.93,1.5,1.85,2.25,2.77h0l2.46,3.02c.14,.17,.28,.34,.42,.52l.07,.09h-1.68v11.82h-7.06v-11.82h-1.68l.51-.62Zm-8.65-24.12c.81-1.07,1.92-2.41,2.48-2.94,1.14,1.4,2.27,2.8,3.51,4.33h0l.11,.14h-1.27v8.04h-.01c-1.62,.01-3.17,.01-4.77,.01h0s-.1-.01-.1-.01v-8.04h-1.18l1.25-1.53Zm-12.95,24.14c1.57-1.93,3.1-3.82,4.7-5.78,.76,.93,1.5,1.85,2.25,2.77h0l2.46,3.02c.14,.17,.28,.34,.42,.52l.07,.09h-1.68v11.82h-7.06v-11.82h-1.68l.51-.62Zm-45.44-.02c1.57-1.93,3.1-3.82,4.7-5.78,.76,.93,1.5,1.85,2.25,2.77h0l2.46,3.02c.14,.17,.28,.34,.42,.52l.07,.09h-1.68v11.82h-7.06v-11.82h-1.68l.51-.62Zm-8.28-24.19c.79-.97,1.58-1.94,2.38-2.92,.64,.79,1.27,1.56,1.88,2.33l1.78,2.19h-1.27v8.04h-4.88v-8.04h-1.18l1.3-1.6Zm-13.31,24.19c1.57-1.93,3.1-3.82,4.7-5.78,.76,.93,1.5,1.85,2.25,2.77h0l2.46,3.02c.14,.17,.28,.34,.42,.52l.07,.09h-1.68v11.82h-7.06v-11.82h-1.68l.51-.62Zm-21.65,0c1.57-1.93,3.1-3.82,4.7-5.78,.76,.93,1.5,1.85,2.25,2.77h0l2.46,3.02c.14,.17,.28,.34,.42,.52l.07,.09h-1.68v11.82h-7.06v-11.82h-1.68l.51-.62Zm4.61,80.86h-8.63v-19.19h8.63v19.19Zm0-54.42v19.09c-2.84,.06-5.68,0-8.63,.03v-19.22h8.63v.1Zm21.7,54.42h-8.63v-19.19h8.63v19.19Zm0-35.33h0v.02h-8.62v-.02h0v-19.19h8.63v19.19Zm21.68,35.33h-8.63v-19.19h8.63v19.19Zm0-35.33h-8.63v-19.19h8.63v19.19Zm54.01,35.26h-8.64v-19.06h8.64v19.06Zm-8.64-35.26v-19.19h8.63v19.19h-8.63Zm30.32,35.26h-8.64v-19.06h8.64v19.06Zm-8.64-35.26v-19.19h8.63v19.19h-8.63Zm30.37,35.26h-8.64v-19.06h8.64v19.06Zm-8.64-35.26v-19.19h8.63v19.19h-8.63Zm19.26-25.2h-81.06v2h-.04c-.01,1.22-.02,2.44-.03,3.66v1.34h-.01c0,.54,0,1.07-.01,1.61,0,.37-.05,.75-.16,1.1-1.23,3.79-2.48,7.57-3.73,11.36-.07,.22-.18,.42-.32,.77-.13-.33-.21-.51-.27-.7-1.25-3.78-2.5-7.57-3.73-11.35-.13-.4-.19-.84-.19-1.26,0-.51-.11-1.52-.11-1.52v-7H114.81v-2.41h81.02v-13.27h.01c0-.81,0-1.61,0-2.42-.02-1.85,.17-3.65,.61-5.46,1.19-4.94,2.31-9.9,3.45-14.85,.05-.2,.11-.4,.22-.78,.15,.54,.26,.92,.35,1.3,1.25,5.34,2.51,10.68,3.74,16.02,.14,.62,.22,1.26,.22,1.89,0,2.42,0,4.85,0,7.27h0v10.3h81.06v2.41Z"/></g><g><path class="cls-2" d="M42.32,267.51H0v-70.74H9.86v67.03H42.32v3.71Z"/><path class="cls-2" d="M118.35,267.51h-11.03l-9.44-23.76h-28.53l-9.01,23.76h-7.32l30.97-71.48h4.77l29.59,71.48Zm-21.85-27.36l-13.15-33.19-12.62,33.19h25.77Z"/><path class="cls-2" d="M137.86,247.26c.32,5.09,.64,7.21,1.7,9.97,2.12,5.2,7.42,8.48,14.1,8.48,4.56,0,8.91-1.59,11.77-4.35,2.33-2.12,3.5-4.98,3.5-8.8,0-4.03-1.59-7.64-4.45-10.29-2.33-2.02-4.14-2.97-10.08-5.41l-6.79-2.76c-7.32-2.86-9.86-4.24-12.83-7-3.61-3.39-5.51-7.53-5.51-12.41,0-11.77,9.44-19.3,24.18-19.3s23.44,7.11,23.76,20.26h-9.86c-.32-4.77-.74-6.79-2.02-9.44-2.12-4.67-7.11-7.53-12.83-7.53-8.06,0-13.79,5.3-13.79,12.62,0,6.15,3.5,9.76,12.94,13.57l7.64,2.97c6.36,2.55,9.23,4.03,11.98,6.26,4.46,3.61,6.89,8.8,6.89,14.74,0,6.79-3.18,12.73-8.7,16.23-3.82,2.44-9.76,3.82-16.44,3.82-16.12,0-24.71-7.42-25.03-21.63h9.86Z"/><path class="cls-2" d="M253.14,267.51h-11.03l-9.44-23.76h-28.53l-9.01,23.76h-7.32l30.97-71.48h4.77l29.59,71.48Zm-21.85-27.36l-13.15-33.19-12.62,33.19h25.77Z"/><path class="cls-2" d="M288.77,196.77c9.65,0,15.06,1.27,19.62,4.56,4.35,3.18,6.68,7.95,6.68,13.68,0,10.08-6.15,15.91-18.88,17.61v.21c10.71,.53,14.53,3.82,16.97,14.85l5.3,19.83h-10.71l-4.14-17.39c-3.18-13.89-4.98-15.48-18.35-15.48h-7.11v32.88h-9.86v-70.74h20.47Zm-.74,34.47c10.5,0,16.44-5.62,16.44-15.8,0-5.2-1.91-9.86-4.98-12.2-2.76-2.23-6.47-3.18-12.3-3.18h-9.01v31.18h9.86Z"/><path class="cls-2" d="M388.45,196.77v3.39l-42.95,63.74,44.33-.53v4.14h-56.42v-3.5l42.74-63.63-41.25,.53v-4.14h53.56Z"/></g><g><path class="cls-2" d="M5.52,281.47c3.93,0,5.48,.33,7.33,1.6,2.21,1.49,3.46,4.26,3.46,7.58,0,3.57-1.47,6.42-4.04,7.91-1.83,1.05-3.46,1.36-7.38,1.36H.71v-18.45H5.52Zm-.3,17.54c3.35,0,5.06-.55,6.39-2.1,1.24-1.44,1.88-3.51,1.88-6.2,0-2.99-.77-5.31-2.21-6.64-1.24-1.19-2.96-1.69-5.64-1.69H3.28v16.62h1.94Z"/><path class="cls-2" d="M24.38,299.92h-2.57v-18.45h2.57v18.45Z"/><path class="cls-2" d="M42.39,282.42h-8.71v7.55h7.77v.94h-7.77v8.08h9.15v.94h-11.73v-18.45h11.28v.94Z"/><path class="cls-2" d="M58.68,299.92h-2.57v-18.45h2.57v18.45Z"/><path class="cls-2" d="M66.45,282.61v17.31h-1.11v-18.45h3.29l6.22,15.41,6.22-15.41h3.21v18.45h-2.57v-17.31l-6.91,17.31h-1.38l-6.97-17.31Z"/><path class="cls-2" d="M92.06,282.61v17.31h-1.11v-18.45h3.29l6.22,15.41,6.22-15.41h3.21v18.45h-2.57v-17.31l-6.91,17.31h-1.38l-6.97-17.31Z"/><path class="cls-2" d="M130.59,283.83c1.55,1.77,2.3,4.07,2.3,7.03,0,5.7-3.54,9.54-8.82,9.54s-8.68-3.82-8.68-9.71c0-3.07,.89-5.56,2.6-7.22,1.58-1.55,3.84-2.46,6.2-2.46,2.54,0,4.81,1,6.42,2.82Zm-11.15,.8c-.89,1.55-1.24,3.29-1.24,6.06s.33,4.51,1.19,6c.94,1.74,2.68,2.77,4.7,2.77s3.82-1.05,4.78-2.82c.83-1.49,1.19-3.32,1.19-5.84,0-2.85-.36-4.7-1.24-6.2-.97-1.69-2.68-2.68-4.67-2.68s-3.71,1-4.7,2.71Z"/><path class="cls-2" d="M145.63,290.41c1.27,.08,1.85,.19,2.66,.53,1.71,.69,2.68,2.18,2.68,4.09s-1.02,3.49-2.85,4.23c-1.22,.53-2.32,.66-4.92,.66h-4.9v-18.45h5.31c2.66,0,3.46,.14,4.73,.86,1.36,.75,2.13,2.1,2.13,3.73,0,2.43-1.58,3.84-4.84,4.29v.06Zm-2.43-.41c2.99,0,4.54-1.38,4.54-3.98,0-1.19-.41-2.18-1.19-2.79-.91-.69-1.77-.89-3.96-.89h-1.71v7.66h2.32Zm-.06,9.07c3.51,0,5.03-1.24,5.03-4.12s-1.49-4.07-4.79-4.07h-2.52v8.19h2.27Z"/><path class="cls-2" d="M158.8,299.92h-2.57v-18.45h2.57v18.45Z"/><path class="cls-2" d="M176.67,299.92h-11.04v-18.45h2.57v17.48h8.46v.97Z"/><path class="cls-2" d="M183.39,299.92h-2.57v-18.45h2.57v18.45Z"/><path class="cls-2" d="M201.39,282.42h-8.71v7.55h7.77v.94h-7.77v8.08h9.15v.94h-11.73v-18.45h11.28v.94Z"/><path class="cls-2" d="M207.86,283.11v16.82h-1.13v-18.45h3.1l10.01,14.71v-14.71h1.11v18.59h-1.6l-11.48-16.95Z"/><path class="cls-2" d="M242.02,292.34v6.53c-1.85,.72-5.31,1.41-7.19,1.41-5.23,0-8.41-3.62-8.41-9.6s3.24-9.57,8.35-9.57c2.79,0,5.17,1.13,6.36,3.07,.5,.83,.75,1.58,.89,2.9h-2.57c-.25-3.21-2.02-5.09-4.76-5.09-3.48,0-5.42,3.07-5.42,8.63s1.94,8.71,5.61,8.71c1.27,0,2.6-.22,4.56-.72v-6.28h2.57Z"/><path class="cls-2" d="M250.51,281.47v11.64c0,1.8,.28,3.13,.8,4.07,.75,1.3,2.32,2.1,4.12,2.1s3.4-.77,4.29-1.99c.72-1.02,1.02-2.3,1.02-4.48v-11.34h1.24v11.34c0,2.46-.36,3.84-1.3,5.09-1.16,1.55-3.15,2.38-5.61,2.38-2.85,0-5.12-1.05-6.2-2.93-.69-1.16-.94-2.43-.94-4.84v-11.04h2.57Z"/><path class="cls-2" d="M282.04,281.47v.94h-6.75v17.51h-2.57v-17.51h-6.78v-.94h16.1Z"/><path class="cls-2" d="M298.47,299.92h-2.88l-2.46-6.2h-7.44l-2.35,6.2h-1.91l8.08-18.64h1.24l7.72,18.64Zm-5.7-7.14l-3.43-8.66-3.29,8.66h6.72Z"/><path class="cls-2" d="M313.65,287.09c-.11-1.38-.33-2.16-.86-3.01-.77-1.24-2.3-2.05-3.93-2.05-3.51,0-5.37,3.01-5.37,8.74s1.85,8.66,5.34,8.66c1.69,0,3.29-.89,4.01-2.19,.5-.91,.72-1.77,.8-3.35h2.63c-.22,1.77-.64,2.85-1.47,3.93-1.24,1.55-3.43,2.49-5.81,2.49-5.14,0-8.32-3.68-8.32-9.6s3.21-9.6,8.35-9.6c2.57,0,4.9,1.05,6.14,2.77,.66,.91,.94,1.77,1.11,3.21h-2.63Z"/><path class="cls-2" d="M324.17,299.92h-2.57v-18.45h2.57v8.57h9.02v-8.57h2.57v18.45h-2.57v-8.93h-9.02v8.93Z"/><path class="cls-2" d="M355.94,281.47v.94h-6.75v17.51h-2.57v-17.51h-6.78v-.94h16.1Z"/><path class="cls-2" d="M371.35,282.42h-8.71v7.55h7.77v.94h-7.77v8.08h9.15v.94h-11.73v-18.45h11.28v.94Z"/><path class="cls-2" d="M382.08,281.47c2.52,0,3.93,.33,5.12,1.19,1.13,.83,1.74,2.07,1.74,3.57,0,2.63-1.6,4.15-4.92,4.59v.06c2.79,.14,3.79,1,4.43,3.87l1.38,5.17h-2.79l-1.08-4.54c-.83-3.62-1.3-4.04-4.78-4.04h-1.85v8.57h-2.57v-18.45h5.34Zm-.19,8.99c2.74,0,4.29-1.47,4.29-4.12,0-1.36-.5-2.57-1.3-3.18-.72-.58-1.69-.83-3.21-.83h-2.35v8.13h2.57Z"/></g><g><path class="cls-2" d="M107.31,354.8h-3.05v-25.95h3.05v25.95Z"/><path class="cls-2" d="M123.87,343.93c0-3.08-.84-4.19-3.27-4.19s-3.3,1.06-3.3,3.67h-3.16c.04-3.01,2.39-4.7,6.5-4.7,2.13,0,3.82,.51,4.88,1.51,1.06,.99,1.43,2.13,1.43,4.44v10.13h-2.97v-3.41c-1.17,2.72-2.68,3.78-5.47,3.78-3.19,0-5.21-1.76-5.21-4.55,0-1.95,1.17-3.56,3.12-4.22,1.76-.62,3.78-.88,7.45-.95v-1.51Zm-5.69,3.3c-1.17,.7-1.73,1.73-1.73,3.27,0,2.17,1.06,3.38,2.94,3.38s3.56-1.36,4.07-3.41c.29-1.06,.4-2.06,.4-4.07-2.86,0-4.66,.26-5.69,.84Z"/><path class="cls-2" d="M135.47,349.95c-.04,2.83,1.17,4.15,3.71,4.15,1.95,0,3.38-1.21,3.38-2.86,0-1.32-.88-2.17-2.97-2.75l-1.98-.55c-1.58-.44-2.2-.7-2.97-1.25-1.1-.77-1.69-1.91-1.69-3.23,0-2.79,2.42-4.74,5.87-4.74s5.4,1.58,5.69,4.74h-2.97c-.04-1.25-.11-1.8-.33-2.24-.44-.95-1.39-1.47-2.72-1.47-1.8,0-3.05,1.1-3.05,2.68,0,1.36,.84,2.17,2.72,2.68l2.64,.77c2.9,.77,4.18,2.13,4.18,4.33,0,3.01-2.39,4.96-6.09,4.96-4.04,0-6.42-1.91-6.5-5.21h3.08Z"/><path class="cls-2" d="M160.39,343.93c0-3.08-.85-4.19-3.27-4.19s-3.3,1.06-3.3,3.67h-3.16c.04-3.01,2.39-4.7,6.5-4.7,2.13,0,3.82,.51,4.88,1.51,1.06,.99,1.43,2.13,1.43,4.44v10.13h-2.97v-3.41c-1.18,2.72-2.68,3.78-5.47,3.78-3.19,0-5.21-1.76-5.21-4.55,0-1.95,1.18-3.56,3.12-4.22,1.76-.62,3.78-.88,7.45-.95v-1.51Zm-5.69,3.3c-1.18,.7-1.73,1.73-1.73,3.27,0,2.17,1.06,3.38,2.94,3.38s3.56-1.36,4.07-3.41c.29-1.06,.4-2.06,.4-4.07-2.86,0-4.66,.26-5.69,.84Z"/><path class="cls-2" d="M173.24,339.08v4.52c.92-3.08,2.83-4.66,5.95-4.85v3.67c-1.1-.44-1.76-.62-2.53-.62-2.02,0-3.23,1.58-3.23,4.18v8.81h-3.05v-15.71h2.86Z"/><path class="cls-2" d="M196,340.04l-9.32,13.66,9.8-.18v1.28h-13.58v-.88l9.25-13.73-8.7,.18v-1.28h12.55v.95Z"/><path class="cls-2" d="M205.54,353.07c0,1.17-.92,2.09-2.17,2.09s-2.17-.92-2.17-2.13,.92-2.09,2.17-2.09,2.17,.84,2.17,2.13Z"/><path class="cls-2" d="M224.85,350.02c-.15,1.17-.37,1.84-.84,2.57-1.03,1.65-3.05,2.57-5.58,2.57-4.63,0-7.56-3.16-7.56-8.15s3.05-8.3,7.78-8.3c3.85,0,6.39,2.24,6.46,5.69h-3.16c0-3.12-1.1-4.63-3.38-4.63-2.94,0-4.37,2.39-4.37,7.27,0,2.64,.33,4.07,1.21,5.29,.81,1.1,2.02,1.69,3.45,1.69,2.5,0,4.18-1.51,4.51-4h1.47Z"/><path class="cls-2" d="M245.56,347.12c0,4.96-3.12,8.19-7.97,8.19s-7.93-3.23-7.93-8.33,3.08-8.37,8.04-8.37,7.86,3.23,7.86,8.52Zm-12.59-.11c0,4.81,1.54,7.23,4.59,7.23s4.7-2.39,4.7-7.23-1.47-7.34-4.66-7.34-4.63,2.46-4.63,7.34Z"/><path class="cls-2" d="M254.47,343.2c.84-2.94,2.86-4.48,5.87-4.48,2.75,0,4.33,1.28,4.96,4.11,.99-2.79,2.83-4.11,5.62-4.11,3.19,0,5.03,1.98,5.03,5.43v10.65h-3.05v-10.17c0-1.8-.11-2.57-.48-3.23-.48-.88-1.43-1.43-2.5-1.43-1.28,0-2.57,.7-3.3,1.87-.92,1.43-1.28,3.34-1.28,6.5v6.46h-3.05v-9.65c0-1.69-.11-2.61-.37-3.41-.37-1.1-1.32-1.73-2.57-1.73-1.51,0-2.86,.88-3.63,2.35-.73,1.36-.99,2.9-.99,5.65v6.79h-3.05v-15.71h2.79v4.11Z"/></g><line class="cls-1" y1="314.39" x2="389.82" y2="314.39"/></g></svg>